{"glyphs":{"0":{"ha":1506,"x_min":0,"x_max":0,"o":"m 759 1528 b 759 1528 759 1528 759 1528 b 421 1409 637 1528 520 1483 b 758 -26 -124 998 75 -25 l 758 -26 b 759 -26 759 -26 759 -26 b 759 -26 759 -26 759 -26 l 759 -26 b 1022 35 854 -26 943 -4 b 1182 152 1082 65 1136 105 b 1342 412 1252 224 1306 312 b 759 1528 1529 929 1227 1528 z m 759 256 b 390 741 527 256 390 480 b 759 1247 390 1037 589 1247 b 926 1185 820 1247 877 1223 b 759 256 1231 949 1162 256 z "},"1":{"ha":889,"x_min":0,"x_max":0,"o":"m 707 141 l 707 1366 b 566 1507 707 1444 644 1507 b 554 1506 562 1507 558 1506 b 559 1506 556 1506 558 1506 b 554 1506 557 1506 556 1506 b 550 1506 553 1506 552 1506 b 550 1506 550 1506 550 1506 b 550 1506 550 1506 550 1506 b 541 1504 547 1505 544 1505 b 550 1506 544 1505 547 1505 b 540 1504 546 1505 543 1505 b 537 1504 539 1504 538 1504 b 525 1500 533 1503 529 1502 b 523 1500 524 1500 523 1500 b 515 1497 520 1499 517 1498 l 519 1498 b 512 1496 517 1497 514 1497 b 515 1497 513 1496 514 1497 l 207 1397 b 206 1397 207 1397 206 1397 l 205 1397 l 205 1396 b 108 1263 149 1378 108 1325 b 248 1122 108 1185 171 1122 l 249 1122 b 262 1122 253 1122 257 1122 b 265 1123 263 1123 264 1123 b 274 1124 268 1123 271 1124 b 279 1125 276 1125 277 1125 b 286 1127 281 1126 284 1126 b 292 1129 288 1128 290 1128 b 292 1129 292 1129 292 1129 l 425 1172 l 425 141 b 566 0 425 63 488 0 b 707 141 644 0 707 63 b 707 141 707 141 707 141 z m 498 1489 b 477 1475 491 1485 484 1480 b 498 1489 484 1480 491 1485 z m 465 1464 b 459 1457 463 1462 461 1459 b 465 1464 461 1459 463 1462 z m 426 1379 b 425 1366 425 1375 425 1370 b 426 1379 425 1370 425 1375 z m 457 1455 b 450 1445 454 1452 452 1449 b 457 1455 452 1449 454 1452 z m 436 1420 b 432 1408 434 1416 433 1412 b 436 1420 433 1412 434 1416 z "},"2":{"ha":1365,"x_min":0,"x_max":0,"o":"m 127 214 b 130 218 128 216 129 217 b 127 214 129 217 128 216 z m 134 225 b 130 218 133 223 131 220 b 134 225 131 220 133 223 z m 137 228 b 134 225 136 227 135 226 b 137 228 135 226 136 227 z m 127 214 b 124 208 126 212 125 210 b 127 214 125 210 126 212 z m 124 208 b 122 204 123 206 122 205 b 124 208 122 205 123 206 z m 122 204 b 117 193 120 201 118 197 b 122 204 118 197 120 201 z m 1066 283 l 593 283 b 954 593 734 409 858 501 b 665 1523 1415 1033 1023 1523 l 665 1523 b 164 1243 466 1525 264 1421 b 149 1147 147 1211 143 1178 b 150 1145 149 1146 149 1145 b 152 1135 150 1141 151 1138 b 287 1033 169 1076 223 1033 b 412 1108 341 1033 388 1063 b 664 1242 455 1184 552 1242 b 760 797 767 1243 1039 1063 b 759 796 760 797 759 796 b 149 242 627 670 400 513 b 144 237 148 241 146 239 b 144 237 144 237 144 237 b 144 237 144 237 144 237 b 139 231 143 235 141 233 b 137 228 138 230 138 229 b 139 230 137 229 138 229 b 195 11 87 163 97 51 b 250 1 213 4 231 1 b 248 1 249 1 249 1 l 1066 0 b 1206 141 1143 0 1206 63 b 1066 283 1206 219 1143 283 z m 236 282 b 248 283 240 282 244 283 b 236 282 244 283 240 282 z m 274 4 b 277 4 275 4 276 4 b 274 4 276 4 275 4 z m 289 7 b 292 8 290 8 291 8 b 289 7 291 8 290 8 z m 302 12 b 305 13 303 12 304 13 b 302 12 304 13 303 12 z m 315 18 b 317 19 316 18 316 19 b 315 18 316 19 316 18 z m 328 26 b 331 28 329 27 330 27 b 328 26 330 27 329 27 z m 339 34 b 342 37 340 35 341 36 b 339 34 341 36 340 35 z "},"3":{"ha":1263,"x_min":0,"x_max":0,"o":"m 726 1000 l 1001 1258 b 970 1500 1076 1318 1076 1454 b 914 1511 953 1507 934 1511 b 914 1511 914 1511 914 1511 l 914 1511 l 249 1511 l 249 1511 b 108 1370 171 1511 108 1448 b 249 1230 108 1293 171 1230 l 559 1230 l 273 960 b 389 708 164 883 221 672 b 671 724 478 728 582 740 b 866 559 770 706 843 656 b 873 494 871 538 874 515 b 367 377 864 301 499 172 b 362 385 366 380 364 382 b 361 385 362 385 362 385 b 344 405 356 392 350 399 b 343 405 344 405 343 405 b 249 442 318 428 285 442 b 109 321 177 442 119 389 b 109 317 109 320 109 318 b 108 310 108 315 108 313 b 108 303 108 308 108 305 b 108 301 108 302 108 302 b 108 298 108 300 108 299 b 108 288 108 295 108 291 b 109 284 109 287 109 285 b 110 274 109 281 110 278 b 111 270 111 273 111 272 b 114 261 112 267 113 264 b 115 257 114 259 115 258 b 119 247 116 254 117 251 b 120 245 119 247 119 246 b 124 235 121 241 123 238 b 126 233 125 234 125 234 b 130 225 127 230 128 228 b 1154 477 407 -205 1126 6 b 1154 478 1154 477 1154 477 b 1154 505 1154 487 1154 496 b 726 1000 1154 743 998 949 z "},"4":{"ha":1568,"x_min":0,"x_max":0,"o":"m 109 479 b 111 489 110 482 111 486 b 109 479 111 486 110 482 z m 114 500 b 111 489 113 496 112 493 b 114 500 112 493 113 496 z m 111 425 b 111 424 111 425 111 424 b 111 425 111 424 111 425 z m 109 437 b 108 451 108 442 108 446 b 109 437 108 446 108 442 z m 111 425 b 109 437 110 429 109 433 b 111 425 109 433 110 429 z m 1319 597 b 1319 597 1319 597 1319 597 l 1178 597 l 1178 1365 b 1037 1506 1178 1443 1115 1506 b 931 1457 998 1505 959 1489 l 923 1448 l 155 563 b 113 420 116 527 101 470 b 111 424 112 421 112 423 b 113 419 112 423 112 421 b 249 316 126 363 170 315 l 896 316 l 896 140 l 896 140 b 1037 0 897 63 960 0 b 1178 140 1115 0 1177 63 l 1178 140 l 1178 316 l 1319 316 b 1459 456 1396 316 1459 379 b 1319 597 1459 534 1396 597 z m 557 597 l 896 987 l 896 597 z "},"5":{"ha":1263,"x_min":0,"x_max":0,"o":"m 587 1010 b 419 997 531 1010 474 1005 l 430 1226 l 968 1226 b 970 1226 969 1226 969 1226 b 1111 1367 1048 1226 1111 1289 b 1111 1367 1111 1367 1111 1367 b 1111 1367 1111 1367 1111 1367 b 970 1508 1111 1445 1048 1508 l 296 1508 b 253 1501 271 1508 252 1501 b 198 1469 217 1490 193 1463 b 155 1365 167 1439 154 1401 b 155 1367 155 1365 155 1366 b 155 1373 155 1369 155 1371 l 129 831 b 133 856 129 839 131 848 b 309 686 112 764 181 651 b 864 575 512 741 807 776 b 873 504 871 553 874 528 b 367 374 860 298 500 167 l 367 374 b 249 439 342 413 298 439 b 108 298 171 439 108 376 b 130 222 108 270 116 244 l 130 222 b 1154 487 408 -211 1126 6 b 1154 487 1154 487 1154 487 b 1154 488 1154 487 1154 487 b 587 1010 1169 755 980 1010 z m 282 1227 b 281 1227 281 1227 281 1227 b 282 1227 281 1227 281 1227 z m 183 1283 b 155 1361 167 1305 156 1332 b 183 1283 157 1333 166 1306 z "},"6":{"ha":1342,"x_min":0,"x_max":0,"o":"m 675 952 b 410 893 585 952 494 933 b 428 970 412 902 416 929 b 725 1228 474 1127 561 1228 b 939 1156 799 1228 884 1204 b 941 1155 940 1156 940 1155 b 945 1152 942 1154 943 1153 b 951 1147 947 1150 949 1149 b 955 1144 952 1146 954 1145 b 962 1140 958 1143 960 1141 b 967 1138 964 1139 965 1139 b 974 1134 969 1137 972 1135 b 979 1132 976 1133 977 1133 b 987 1129 981 1131 984 1130 b 991 1128 988 1129 990 1128 b 1000 1126 994 1127 997 1126 b 1004 1125 1001 1125 1003 1125 b 1014 1123 1007 1124 1011 1124 b 1017 1123 1015 1123 1016 1123 b 1031 1122 1022 1122 1026 1122 b 1038 1123 1033 1122 1036 1122 b 1045 1123 1041 1123 1043 1123 b 1050 1124 1047 1123 1048 1123 b 1060 1125 1053 1124 1057 1125 b 1064 1126 1061 1126 1063 1126 b 1074 1129 1068 1127 1071 1128 b 1079 1131 1076 1129 1077 1130 b 1087 1134 1082 1132 1085 1133 b 1093 1137 1089 1135 1091 1136 b 1100 1140 1095 1138 1098 1139 b 1106 1144 1102 1142 1104 1143 b 1112 1148 1108 1145 1110 1147 b 1118 1152 1114 1149 1116 1151 b 1124 1157 1120 1154 1122 1156 b 1129 1162 1125 1159 1127 1160 b 1135 1168 1131 1164 1133 1166 b 1138 1171 1136 1169 1137 1170 b 1139 1172 1138 1172 1138 1172 b 1144 1179 1140 1175 1142 1177 b 1147 1184 1145 1180 1146 1182 b 1151 1190 1149 1186 1150 1188 b 1154 1195 1152 1192 1153 1194 b 1158 1202 1156 1197 1157 1200 b 1160 1208 1159 1204 1160 1206 b 1163 1214 1161 1210 1162 1212 b 1165 1221 1164 1216 1165 1218 b 1167 1227 1166 1223 1166 1225 b 1169 1234 1167 1229 1168 1232 b 1170 1240 1169 1236 1169 1238 b 1171 1248 1170 1242 1171 1245 b 1171 1253 1171 1250 1171 1251 b 1172 1262 1171 1256 1172 1259 b 1172 1263 1172 1262 1172 1263 b 1171 1268 1172 1265 1172 1266 b 1171 1276 1171 1270 1171 1273 b 1170 1283 1171 1278 1171 1280 b 1169 1289 1170 1285 1170 1287 b 1168 1297 1169 1292 1168 1294 b 1166 1302 1167 1298 1167 1300 b 1164 1310 1165 1305 1165 1307 b 1162 1315 1163 1312 1162 1313 b 1159 1322 1161 1318 1160 1320 b 1156 1328 1158 1324 1157 1326 b 1152 1334 1155 1330 1154 1332 b 1149 1340 1151 1336 1150 1338 b 1145 1345 1148 1342 1146 1344 b 1141 1351 1144 1347 1142 1349 b 1136 1357 1139 1353 1138 1355 b 1132 1361 1135 1358 1133 1360 b 1125 1367 1130 1363 1128 1365 b 1122 1370 1124 1368 1124 1369 b 1121 1371 1122 1370 1122 1371 b 1119 1373 1121 1371 1120 1372 b 724 1509 1011 1463 865 1509 b 144 995 453 1509 227 1346 b 116 446 103 821 102 625 b 674 -34 122 175 373 -34 b 675 -34 674 -34 675 -34 b 1234 456 986 -34 1234 186 b 675 952 1234 734 1025 952 z m 396 474 l 396 475 b 397 471 396 474 396 472 b 396 474 396 472 396 473 z m 675 247 l 675 247 b 675 247 675 247 675 247 b 675 247 675 247 675 247 b 674 247 675 247 675 247 b 397 456 522 248 398 343 b 397 459 397 457 397 458 b 397 456 397 457 397 456 b 953 456 398 722 953 765 b 675 247 953 339 823 247 z "},"7":{"ha":1285,"x_min":0,"x_max":0,"o":"m 1038 1506 b 1035 1506 1037 1506 1036 1506 l 1035 1506 l 249 1506 b 108 1365 171 1506 108 1443 b 249 1224 108 1287 171 1224 l 804 1224 l 266 208 b 266 207 266 208 266 208 l 266 207 b 265 205 265 206 265 206 b 260 194 263 201 261 198 b 258 191 259 193 259 192 b 255 181 257 188 256 184 b 254 176 255 179 254 178 b 252 168 253 173 252 171 b 251 161 251 165 251 163 b 250 154 250 159 250 156 b 249 146 250 151 249 148 b 249 141 249 144 249 142 b 249 140 249 141 249 140 b 250 132 249 138 249 135 b 272 64 251 107 259 84 b 273 63 272 63 273 63 b 279 55 275 60 277 57 b 281 52 280 54 280 53 b 287 44 283 49 285 47 b 290 41 288 43 289 42 b 325 16 300 31 312 23 b 333 12 327 15 330 13 b 338 10 335 11 336 11 b 345 7 340 9 343 8 b 350 6 347 7 349 6 b 360 3 353 5 356 4 b 363 3 361 3 362 3 b 375 1 367 2 371 1 b 377 1 375 1 376 1 b 390 0 381 0 386 0 b 390 0 390 0 390 0 b 390 0 390 0 390 0 b 390 0 390 0 390 0 b 402 1 394 0 398 0 b 406 1 404 1 405 1 b 416 3 410 1 413 2 b 421 4 418 3 420 3 b 429 6 424 4 427 5 b 434 7 431 6 433 7 b 442 10 437 8 439 9 b 447 12 444 11 445 11 b 455 16 450 13 453 15 b 459 18 456 17 458 17 b 468 23 462 20 465 22 b 469 24 468 24 468 24 b 479 32 472 27 476 29 b 480 33 479 32 480 33 b 489 41 483 35 486 38 b 490 42 489 41 489 41 b 499 51 493 45 496 48 b 499 52 499 51 499 51 b 506 61 501 54 504 58 b 508 64 506 62 507 63 b 513 72 509 66 511 69 b 514 74 513 73 514 73 b 514 75 514 75 514 75 l 1156 1288 b 1038 1506 1218 1404 1135 1506 z "},"8":{"ha":1381,"x_min":0,"x_max":0,"o":"m 1093 782 b 1220 1067 1171 857 1220 956 b 690 1503 1220 1307 988 1503 b 161 1067 396 1503 161 1309 b 288 782 161 956 210 857 b 689 -30 -85 494 157 -30 l 689 -30 b 690 -30 690 -30 690 -30 b 1093 782 1227 -30 1463 496 z m 863 1176 b 938 1067 902 1151 938 1113 b 797 928 938 1004 871 951 b 442 1066 629 874 443 962 b 863 1176 443 1191 696 1280 z m 690 251 l 690 251 b 690 251 690 251 690 251 b 423 523 487 251 317 393 b 674 630 495 612 624 628 b 690 630 680 630 685 630 b 940 543 779 630 877 603 b 690 251 1077 412 911 251 z "},"9":{"ha":1349,"x_min":0,"x_max":0,"o":"m 1227 1046 b 937 1461 1229 1073 1214 1327 b 668 1521 856 1499 765 1521 b 145 840 284 1521 3 1188 b 667 534 230 634 434 534 b 668 534 667 534 668 534 l 668 534 b 946 600 768 534 863 558 b 923 498 945 590 942 559 b 618 259 874 341 781 259 b 407 328 545 259 462 282 b 312 365 382 350 349 365 b 171 224 234 365 171 301 b 221 117 171 181 191 142 l 221 116 b 1206 465 481 -106 1063 -112 b 1227 1046 1251 648 1248 859 z m 1227 1044 l 1227 1044 b 1227 1045 1227 1045 1227 1045 b 1227 1044 1227 1045 1227 1045 z m 911 930 b 667 815 866 866 778 816 b 424 1129 383 816 350 1027 b 668 1239 476 1201 573 1239 l 668 1239 b 668 1239 668 1239 668 1239 b 668 1239 668 1239 668 1239 b 911 930 867 1239 1016 1077 z "},"\u0000":{"ha":1081,"x_min":0,"x_max":0,"o":""},"\n":{"ha":0,"x_min":0,"x_max":0,"o":""},"\r":{"ha":0,"x_min":0,"x_max":0,"o":""}," ":{"ha":874,"x_min":0,"x_max":0,"o":""},"!":{"ha":497,"x_min":0,"x_max":0,"o":"m 249 1509 b 108 1368 171 1509 108 1446 l 108 606 b 249 465 108 528 171 465 b 389 606 326 465 389 528 l 389 1368 b 249 1509 389 1446 326 1509 z m 249 309 b 108 168 171 309 108 246 l 108 141 b 249 0 108 63 171 0 b 389 141 326 0 389 63 l 389 168 b 249 309 389 246 326 309 z "},"$":{"ha":1394,"x_min":0,"x_max":0,"o":"m 851 878 l 851 1239 b 1074 1154 991 1192 1010 1154 b 1200 1230 1125 1154 1175 1182 b 1204 1239 1201 1233 1202 1236 b 1204 1241 1204 1240 1204 1240 b 1208 1252 1206 1244 1207 1248 b 1209 1254 1209 1252 1209 1253 b 1212 1265 1210 1258 1211 1261 b 1213 1268 1212 1266 1212 1267 b 1214 1279 1213 1271 1214 1275 b 1215 1282 1214 1280 1215 1281 b 1215 1292 1215 1285 1215 1289 b 1215 1295 1215 1293 1215 1294 b 1215 1296 1215 1296 1215 1296 b 1215 1304 1215 1299 1215 1302 b 1214 1311 1215 1307 1215 1309 b 1214 1314 1214 1312 1214 1313 b 1131 1424 1208 1363 1175 1405 b 851 1531 1043 1469 947 1510 l 851 1579 b 710 1720 851 1657 788 1720 b 569 1579 632 1720 569 1657 l 569 1545 b 169 1212 340 1518 207 1392 b 569 657 105 917 277 739 l 569 274 b 328 388 452 308 384 358 b 248 412 305 403 278 412 b 108 278 173 412 111 353 b 180 147 105 226 132 174 b 569 -16 262 102 391 19 l 569 -68 b 710 -209 569 -146 632 -209 b 851 -68 788 -209 851 -146 l 851 -25 b 1186 148 982 -6 1103 48 b 1286 428 1253 229 1286 329 b 851 878 1286 678 1090 808 z m 442 1141 b 569 1260 452 1205 481 1243 l 569 954 b 442 1141 443 1005 428 1057 z m 851 262 l 851 581 b 999 467 905 559 980 522 b 851 262 1014 421 1010 300 z "},"&":{"ha":1549,"x_min":0,"x_max":0,"o":"m 1401 229 l 1401 229 l 1266 368 b 1408 612 1317 443 1365 526 b 1408 612 1408 612 1408 612 b 1410 616 1409 613 1409 614 l 1410 616 b 1425 679 1420 635 1425 656 b 1284 820 1425 757 1362 820 b 1159 742 1229 820 1182 788 l 1158 742 b 1064 574 1129 683 1097 626 l 932 710 b 1006 761 959 725 984 742 b 1074 836 1033 784 1055 809 b 1134 962 1102 876 1122 919 b 1152 1090 1147 1005 1152 1048 b 1138 1215 1152 1134 1147 1176 b 1103 1309 1130 1249 1118 1280 b 1057 1377 1089 1334 1074 1357 b 960 1459 1027 1412 993 1439 b 885 1493 934 1474 909 1485 b 790 1516 850 1506 817 1512 b 726 1521 762 1520 740 1521 b 713 1520 720 1521 716 1521 b 622 1511 682 1520 651 1517 b 547 1485 596 1505 571 1496 b 442 1410 506 1466 470 1440 b 389 1337 421 1387 403 1362 b 346 1223 368 1300 355 1261 b 335 1114 338 1186 335 1149 b 355 991 335 1069 343 1029 b 388 913 364 963 376 937 b 408 877 394 900 401 888 b 448 815 420 855 434 834 b 462 797 452 809 457 803 b 408 877 443 821 425 846 b 397 12 11 696 8 200 b 667 -48 478 -26 570 -48 b 667 -48 667 -48 667 -48 l 667 -48 b 1086 149 828 -48 970 38 l 1198 34 b 1300 -10 1224 7 1260 -10 b 1441 131 1378 -10 1441 53 b 1401 229 1441 169 1425 204 z m 656 932 b 656 932 656 932 656 932 b 653 932 655 932 654 932 b 656 932 654 932 655 932 z m 724 1239 b 843 1193 758 1240 815 1229 b 714 935 880 1146 913 957 b 633 1053 677 973 649 1016 b 724 1239 616 1092 590 1239 z m 667 234 b 480 289 595 234 530 255 b 602 645 308 407 395 607 b 507 743 563 685 533 715 b 509 742 508 743 508 742 l 549 699 b 555 694 551 697 553 695 b 555 693 555 693 555 693 l 560 688 l 602 645 l 889 351 b 667 234 820 284 743 234 b 667 234 667 234 667 234 z m 465 792 b 465 792 465 792 465 792 b 465 792 465 792 465 792 z "},".":{"ha":497,"x_min":0,"x_max":0,"o":"m 249 -22 b 389 119 326 -22 389 41 b 249 260 389 197 326 260 b 108 119 171 260 108 197 b 249 -22 108 41 171 -22 z "},"?":{"ha":1176,"x_min":0,"x_max":0,"o":"m 631 1509 l 631 1509 b 625 1509 629 1509 627 1509 b 623 1509 624 1509 624 1509 l 623 1509 b 128 1232 378 1509 229 1412 b 117 1211 124 1225 120 1218 b 117 1210 117 1210 117 1210 b 113 1197 115 1206 114 1202 b 111 1191 112 1195 112 1193 b 110 1186 111 1189 111 1188 b 109 1175 110 1182 109 1179 b 108 1174 108 1175 108 1174 b 108 1161 108 1170 108 1166 b 108 1160 108 1161 108 1161 b 108 1159 108 1160 108 1159 b 108 1147 108 1155 108 1151 b 109 1141 109 1145 109 1143 b 110 1137 109 1140 110 1138 b 162 1049 116 1101 135 1070 b 164 1048 163 1048 163 1048 b 173 1041 167 1045 170 1043 b 180 1037 175 1040 177 1039 b 183 1035 181 1037 182 1036 b 206 1026 190 1032 198 1028 b 208 1025 206 1026 207 1026 b 233 1020 216 1023 224 1021 b 236 1020 234 1020 235 1020 b 248 1019 240 1019 244 1019 b 249 1019 248 1019 248 1019 l 249 1019 b 249 1019 249 1019 249 1019 b 261 1020 253 1019 257 1019 b 264 1020 262 1020 263 1020 b 276 1022 268 1021 272 1021 b 278 1022 277 1022 278 1022 b 289 1025 282 1023 285 1024 b 292 1026 290 1025 291 1026 b 303 1030 296 1027 299 1029 b 304 1030 303 1030 303 1030 b 315 1036 308 1032 311 1034 b 316 1036 315 1036 316 1036 b 372 1092 339 1049 358 1067 b 624 1228 418 1175 469 1227 l 624 1228 b 563 858 753 1228 943 998 b 471 726 508 838 471 785 l 471 529 b 479 484 471 513 474 498 b 612 388 498 428 550 388 b 745 484 674 388 726 428 b 753 529 750 498 753 513 l 753 633 b 835 679 782 647 810 663 b 631 1509 1289 973 1000 1509 z m 612 309 b 471 168 534 309 471 246 l 471 141 b 612 0 471 63 534 0 b 753 141 690 0 753 63 l 753 168 b 612 309 753 246 690 309 z "},"A":{"ha":1665,"x_min":0,"x_max":0,"o":"m 1565 205 l 1566 205 l 949 1419 b 818 1508 928 1471 877 1508 b 687 1419 758 1508 707 1471 l 70 205 l 70 205 b 55 141 60 185 55 164 b 196 0 55 63 118 0 b 321 77 250 0 298 31 l 321 77 l 818 1055 l 1026 645 l 789 645 b 648 504 711 645 648 582 b 789 363 648 426 711 363 l 1169 363 l 1314 77 l 1315 77 b 1440 0 1338 31 1385 0 b 1581 141 1518 0 1581 63 b 1565 205 1581 164 1575 185 z "},"À":{"ha":1665,"x_min":0,"x_max":0,"o":"m 1565 205 l 1566 205 l 949 1419 b 818 1508 928 1471 877 1508 b 687 1419 758 1508 707 1471 l 70 205 l 70 205 b 55 141 60 185 55 164 b 196 0 55 63 118 0 b 321 77 250 0 298 31 l 321 77 l 818 1055 l 1026 645 l 789 645 b 648 504 711 645 648 582 b 789 363 648 426 711 363 l 1169 363 l 1314 77 l 1315 77 b 1440 0 1338 31 1385 0 b 1581 141 1518 0 1581 63 b 1565 205 1581 164 1575 185 z "},"Á":{"ha":1665,"x_min":0,"x_max":0,"o":"m 1565 205 l 1566 205 l 949 1419 b 818 1508 928 1471 877 1508 b 687 1419 758 1508 707 1471 l 70 205 l 70 205 b 55 141 60 185 55 164 b 196 0 55 63 118 0 b 321 77 250 0 298 31 l 321 77 l 818 1055 l 1026 645 l 789 645 b 648 504 711 645 648 582 b 789 363 648 426 711 363 l 1169 363 l 1314 77 l 1315 77 b 1440 0 1338 31 1385 0 b 1581 141 1518 0 1581 63 b 1565 205 1581 164 1575 185 z "},"Â":{"ha":1665,"x_min":0,"x_max":0,"o":"m 1565 205 l 1566 205 l 949 1419 b 818 1508 928 1471 877 1508 b 687 1419 758 1508 707 1471 l 70 205 l 70 205 b 55 141 60 185 55 164 b 196 0 55 63 118 0 b 321 77 250 0 298 31 l 321 77 l 818 1055 l 1026 645 l 789 645 b 648 504 711 645 648 582 b 789 363 648 426 711 363 l 1169 363 l 1314 77 l 1315 77 b 1440 0 1338 31 1385 0 b 1581 141 1518 0 1581 63 b 1565 205 1581 164 1575 185 z "},"Ã":{"ha":1665,"x_min":0,"x_max":0,"o":"m 1565 205 l 1566 205 l 949 1419 b 818 1508 928 1471 877 1508 b 687 1419 758 1508 707 1471 l 70 205 l 70 205 b 55 141 60 185 55 164 b 196 0 55 63 118 0 b 321 77 250 0 298 31 l 321 77 l 818 1055 l 1026 645 l 789 645 b 648 504 711 645 648 582 b 789 363 648 426 711 363 l 1169 363 l 1314 77 l 1315 77 b 1440 0 1338 31 1385 0 b 1581 141 1518 0 1581 63 b 1565 205 1581 164 1575 185 z "},"Å":{"ha":1665,"x_min":0,"x_max":0,"o":"m 1565 205 l 1566 205 l 949 1419 b 818 1508 928 1471 877 1508 b 687 1419 758 1508 707 1471 l 70 205 l 70 205 b 55 141 60 185 55 164 b 196 0 55 63 118 0 b 321 77 250 0 298 31 l 321 77 l 818 1055 l 1026 645 l 789 645 b 648 504 711 645 648 582 b 789 363 648 426 711 363 l 1169 363 l 1314 77 l 1315 77 b 1440 0 1338 31 1385 0 b 1581 141 1518 0 1581 63 b 1565 205 1581 164 1575 185 z "},"B":{"ha":1501,"x_min":0,"x_max":0,"o":"m 859 646 b 860 646 860 646 860 646 b 864 646 861 646 863 646 l 836 646 z m 1213 831 b 1198 810 1208 824 1203 817 b 1213 831 1203 817 1208 824 b 1217 836 1215 833 1216 835 b 860 1508 1410 1122 1204 1508 b 860 1508 860 1508 860 1508 l 250 1508 b 250 1508 250 1508 250 1508 b 249 1508 249 1508 249 1508 b 108 1367 171 1508 108 1445 b 108 1367 108 1367 108 1367 b 108 1366 108 1366 108 1366 l 108 141 b 117 91 108 123 111 106 b 234 1 136 42 180 6 b 249 0 239 0 244 0 b 930 0 249 0 930 0 b 1213 831 1370 0 1562 561 z m 1194 806 b 1181 790 1190 801 1186 795 b 1194 806 1186 795 1190 801 z m 930 928 l 903 928 b 939 928 914 928 926 928 b 930 928 936 928 933 928 l 903 928 b 930 928 903 928 930 928 z m 1143 753 b 890 647 1073 691 984 654 b 1143 753 984 654 1073 691 z m 930 282 l 389 282 l 389 1225 l 869 1225 b 862 928 1057 1218 1053 931 l 862 928 b 862 928 862 928 862 928 l 836 928 l 608 928 b 607 928 608 928 608 928 b 593 927 602 928 598 928 b 467 788 522 920 467 860 b 467 787 467 787 467 787 b 467 787 467 787 467 787 b 607 646 467 709 530 646 b 611 647 609 646 610 647 l 864 646 b 1081 566 912 644 1015 664 b 930 282 1162 446 1077 282 z m 1163 772 b 1177 786 1168 776 1173 781 b 1163 772 1173 781 1168 776 z "},"C":{"ha":1574,"x_min":0,"x_max":0,"o":"m 1461 294 b 1460 302 1460 297 1460 299 b 1459 308 1460 304 1460 306 b 1458 315 1459 311 1459 313 b 1457 322 1458 318 1457 320 b 1455 329 1456 324 1456 326 b 1453 335 1455 331 1454 333 b 1451 342 1452 337 1452 340 b 1448 348 1450 344 1449 346 b 1445 354 1447 350 1446 352 b 1442 360 1444 356 1443 358 b 1438 366 1441 362 1440 364 b 1434 372 1437 368 1436 370 b 1430 377 1433 374 1432 375 b 1425 383 1429 379 1427 381 b 1423 386 1424 384 1424 385 b 1421 388 1422 387 1422 387 b 1415 394 1419 390 1417 392 b 1411 398 1414 395 1412 396 b 1404 402 1409 399 1406 401 b 1399 406 1403 404 1401 405 b 1393 410 1397 408 1395 409 b 1387 414 1391 411 1389 413 b 1378 418 1384 415 1381 417 b 1375 420 1377 419 1376 419 b 1348 428 1366 423 1357 426 b 1346 428 1347 428 1347 428 b 1334 430 1342 429 1338 430 b 1321 431 1330 430 1325 431 b 1320 431 1320 431 1320 431 b 1320 431 1320 431 1320 431 l 1320 431 b 1306 430 1315 431 1311 430 b 1301 429 1305 430 1303 430 b 1293 428 1298 429 1296 429 b 1287 427 1291 428 1289 427 b 1280 425 1285 426 1282 425 b 1274 423 1278 424 1276 423 b 1267 420 1272 422 1269 421 b 1261 418 1265 420 1263 419 b 1255 415 1259 417 1257 416 b 1249 412 1253 414 1251 413 b 1243 408 1247 410 1245 409 b 1238 404 1241 407 1240 405 b 1232 400 1236 403 1234 401 b 1227 395 1231 398 1229 397 b 1224 393 1226 394 1225 394 b 1070 294 1179 351 1127 317 b 885 259 1013 271 951 259 b 692 297 816 259 751 272 b 474 477 603 335 527 398 b 412 607 447 517 426 560 b 389 754 397 653 389 702 b 428 947 389 823 403 888 b 608 1165 466 1035 529 1111 b 737 1227 647 1192 691 1213 b 885 1249 784 1241 833 1249 b 1073 1212 952 1249 1015 1236 b 1228 1111 1131 1188 1184 1154 b 1232 1108 1229 1110 1231 1109 b 1238 1103 1234 1106 1236 1104 b 1243 1099 1239 1101 1241 1100 b 1249 1095 1245 1097 1247 1096 b 1255 1091 1251 1093 1253 1092 b 1260 1088 1257 1090 1258 1089 b 1267 1085 1262 1087 1265 1086 b 1273 1082 1269 1084 1271 1083 b 1279 1080 1275 1081 1277 1080 b 1285 1078 1281 1079 1283 1078 b 1292 1076 1288 1077 1290 1076 b 1299 1074 1294 1075 1297 1075 b 1307 1073 1301 1074 1304 1073 b 1312 1072 1308 1073 1310 1072 b 1326 1072 1317 1072 1321 1072 l 1326 1072 b 1326 1072 1326 1072 1326 1072 b 1340 1072 1331 1072 1335 1072 b 1348 1073 1343 1073 1345 1073 b 1354 1074 1350 1074 1352 1074 b 1362 1077 1357 1075 1360 1076 b 1367 1078 1364 1077 1366 1077 b 1376 1081 1370 1079 1373 1080 b 1380 1083 1377 1081 1379 1082 b 1388 1086 1383 1084 1385 1085 b 1394 1089 1390 1087 1392 1088 b 1405 1096 1398 1091 1401 1093 b 1409 1099 1406 1097 1408 1098 b 1416 1104 1411 1101 1414 1102 b 1420 1108 1417 1105 1419 1107 b 1426 1114 1422 1110 1424 1112 b 1427 1115 1427 1114 1427 1114 b 1430 1118 1428 1116 1429 1117 b 1436 1124 1432 1120 1434 1122 b 1440 1130 1437 1126 1438 1128 b 1444 1135 1441 1131 1442 1133 b 1447 1141 1445 1137 1446 1139 b 1451 1147 1448 1143 1450 1145 b 1454 1154 1452 1149 1453 1151 b 1456 1160 1455 1156 1456 1158 b 1459 1166 1457 1162 1458 1164 b 1461 1173 1460 1168 1460 1171 b 1463 1179 1462 1175 1462 1177 b 1464 1186 1463 1182 1464 1184 b 1465 1193 1465 1189 1465 1191 b 1466 1200 1465 1195 1466 1198 b 1466 1208 1466 1202 1466 1205 b 1467 1212 1466 1209 1467 1211 b 1467 1214 1467 1213 1467 1213 b 1466 1222 1467 1216 1466 1219 b 1466 1228 1466 1224 1466 1226 b 1465 1235 1466 1230 1465 1232 b 1464 1241 1464 1237 1464 1239 b 1462 1247 1463 1243 1463 1245 b 1460 1255 1461 1250 1461 1252 b 1458 1260 1460 1257 1459 1259 b 1455 1268 1457 1263 1456 1265 b 1452 1274 1454 1270 1453 1272 b 1450 1280 1451 1276 1451 1278 b 1446 1286 1448 1282 1447 1284 b 1442 1291 1445 1288 1444 1290 b 1438 1297 1441 1293 1440 1295 b 1434 1303 1437 1299 1435 1301 b 1430 1307 1433 1304 1431 1305 b 1424 1313 1428 1309 1426 1311 b 1424 1314 1424 1313 1424 1314 b 1180 1473 1354 1381 1271 1435 b 885 1531 1089 1510 989 1531 b 885 1531 885 1531 885 1531 b 885 1531 885 1531 885 1531 b 582 1470 778 1531 675 1509 b 241 1188 443 1411 324 1312 b 143 985 199 1126 165 1058 b 108 754 120 912 108 834 b 169 451 108 647 129 544 b 450 110 228 312 326 193 b 654 12 512 68 581 35 b 885 -23 727 -11 805 -23 b 885 -23 885 -23 885 -23 b 885 -23 885 -23 885 -23 b 1176 33 987 -23 1086 -3 b 1416 187 1265 69 1347 122 b 1418 189 1417 188 1417 188 b 1423 194 1420 190 1421 192 b 1427 199 1425 196 1426 197 b 1432 204 1429 201 1430 203 b 1436 210 1433 206 1435 208 b 1439 216 1437 212 1438 214 b 1443 222 1441 218 1442 220 b 1446 228 1444 224 1445 226 b 1449 234 1447 230 1448 232 b 1452 241 1450 236 1451 238 b 1454 247 1452 243 1453 245 b 1456 254 1455 249 1455 251 b 1457 260 1456 256 1457 258 b 1459 267 1458 262 1458 264 b 1460 274 1459 269 1460 271 b 1460 280 1460 276 1460 278 b 1461 288 1460 283 1461 285 b 1461 290 1461 288 1461 289 b 1461 294 1461 291 1461 293 z "},"Ç":{"ha":1574,"x_min":0,"x_max":0,"o":"m 1461 294 b 1460 302 1460 297 1460 299 b 1459 308 1460 304 1460 306 b 1458 315 1459 311 1459 313 b 1457 322 1458 318 1457 320 b 1455 329 1456 324 1456 326 b 1453 335 1455 331 1454 333 b 1451 342 1452 337 1452 340 b 1448 348 1450 344 1449 346 b 1445 354 1447 350 1446 352 b 1442 360 1444 356 1443 358 b 1438 366 1441 362 1440 364 b 1434 372 1437 368 1436 370 b 1430 377 1433 374 1432 375 b 1425 383 1429 379 1427 381 b 1423 386 1424 384 1424 385 b 1421 388 1422 387 1422 387 b 1415 394 1419 390 1417 392 b 1411 398 1414 395 1412 396 b 1404 402 1409 399 1406 401 b 1399 406 1403 404 1401 405 b 1393 410 1397 408 1395 409 b 1387 414 1391 411 1389 413 b 1378 418 1384 415 1381 417 b 1375 420 1377 419 1376 419 b 1348 428 1366 423 1357 426 b 1346 428 1347 428 1347 428 b 1334 430 1342 429 1338 430 b 1321 431 1330 430 1325 431 b 1320 431 1320 431 1320 431 b 1320 431 1320 431 1320 431 l 1320 431 b 1306 430 1315 431 1311 430 b 1301 429 1305 430 1303 430 b 1293 428 1298 429 1296 429 b 1287 427 1291 428 1289 427 b 1280 425 1285 426 1282 425 b 1274 423 1278 424 1276 423 b 1267 420 1272 422 1269 421 b 1261 418 1265 420 1263 419 b 1255 415 1259 417 1257 416 b 1249 412 1253 414 1251 413 b 1243 408 1247 410 1245 409 b 1238 404 1241 407 1240 405 b 1232 400 1236 403 1234 401 b 1227 395 1231 398 1229 397 b 1224 393 1226 394 1225 394 b 1070 294 1179 351 1127 317 b 885 259 1013 271 951 259 b 692 297 816 259 751 272 b 474 477 603 335 527 398 b 412 607 447 517 426 560 b 389 754 397 653 389 702 b 428 947 389 823 403 888 b 608 1165 466 1035 529 1111 b 737 1227 647 1192 691 1213 b 885 1249 784 1241 833 1249 b 1073 1212 952 1249 1015 1236 b 1228 1111 1131 1188 1184 1154 b 1232 1108 1229 1110 1231 1109 b 1238 1103 1234 1106 1236 1104 b 1243 1099 1239 1101 1241 1100 b 1249 1095 1245 1097 1247 1096 b 1255 1091 1251 1093 1253 1092 b 1260 1088 1257 1090 1258 1089 b 1267 1085 1262 1087 1265 1086 b 1273 1082 1269 1084 1271 1083 b 1279 1080 1275 1081 1277 1080 b 1285 1078 1281 1079 1283 1078 b 1292 1076 1288 1077 1290 1076 b 1299 1074 1294 1075 1297 1075 b 1307 1073 1301 1074 1304 1073 b 1312 1072 1308 1073 1310 1072 b 1326 1072 1317 1072 1321 1072 l 1326 1072 b 1326 1072 1326 1072 1326 1072 b 1340 1072 1331 1072 1335 1072 b 1348 1073 1343 1073 1345 1073 b 1354 1074 1350 1074 1352 1074 b 1362 1077 1357 1075 1360 1076 b 1367 1078 1364 1077 1366 1077 b 1376 1081 1370 1079 1373 1080 b 1380 1083 1377 1081 1379 1082 b 1388 1086 1383 1084 1385 1085 b 1394 1089 1390 1087 1392 1088 b 1405 1096 1398 1091 1401 1093 b 1409 1099 1406 1097 1408 1098 b 1416 1104 1411 1101 1414 1102 b 1420 1108 1417 1105 1419 1107 b 1426 1114 1422 1110 1424 1112 b 1427 1115 1427 1114 1427 1114 b 1430 1118 1428 1116 1429 1117 b 1436 1124 1432 1120 1434 1122 b 1440 1130 1437 1126 1438 1128 b 1444 1135 1441 1131 1442 1133 b 1447 1141 1445 1137 1446 1139 b 1451 1147 1448 1143 1450 1145 b 1454 1154 1452 1149 1453 1151 b 1456 1160 1455 1156 1456 1158 b 1459 1166 1457 1162 1458 1164 b 1461 1173 1460 1168 1460 1171 b 1463 1179 1462 1175 1462 1177 b 1464 1186 1463 1182 1464 1184 b 1465 1193 1465 1189 1465 1191 b 1466 1200 1465 1195 1466 1198 b 1466 1208 1466 1202 1466 1205 b 1467 1212 1466 1209 1467 1211 b 1467 1214 1467 1213 1467 1213 b 1466 1222 1467 1216 1466 1219 b 1466 1228 1466 1224 1466 1226 b 1465 1235 1466 1230 1465 1232 b 1464 1241 1464 1237 1464 1239 b 1462 1247 1463 1243 1463 1245 b 1460 1255 1461 1250 1461 1252 b 1458 1260 1460 1257 1459 1259 b 1455 1268 1457 1263 1456 1265 b 1452 1274 1454 1270 1453 1272 b 1450 1280 1451 1276 1451 1278 b 1446 1286 1448 1282 1447 1284 b 1442 1291 1445 1288 1444 1290 b 1438 1297 1441 1293 1440 1295 b 1434 1303 1437 1299 1435 1301 b 1430 1307 1433 1304 1431 1305 b 1424 1313 1428 1309 1426 1311 b 1424 1314 1424 1313 1424 1314 b 1180 1473 1354 1381 1271 1435 b 885 1531 1089 1510 989 1531 b 885 1531 885 1531 885 1531 b 885 1531 885 1531 885 1531 b 582 1470 778 1531 675 1509 b 241 1188 443 1411 324 1312 b 143 985 199 1126 165 1058 b 108 754 120 912 108 834 b 169 451 108 647 129 544 b 450 110 228 312 326 193 b 654 12 512 68 581 35 b 885 -23 727 -11 805 -23 b 885 -23 885 -23 885 -23 b 885 -23 885 -23 885 -23 b 1176 33 987 -23 1086 -3 b 1416 187 1265 69 1347 122 b 1418 189 1417 188 1417 188 b 1423 194 1420 190 1421 192 b 1427 199 1425 196 1426 197 b 1432 204 1429 201 1430 203 b 1436 210 1433 206 1435 208 b 1439 216 1437 212 1438 214 b 1443 222 1441 218 1442 220 b 1446 228 1444 224 1445 226 b 1449 234 1447 230 1448 232 b 1452 241 1450 236 1451 238 b 1454 247 1452 243 1453 245 b 1456 254 1455 249 1455 251 b 1457 260 1456 256 1457 258 b 1459 267 1458 262 1458 264 b 1460 274 1459 269 1460 271 b 1460 280 1460 276 1460 278 b 1461 288 1460 283 1461 285 b 1461 290 1461 288 1461 289 b 1461 294 1461 291 1461 293 z "},"D":{"ha":1617,"x_min":0,"x_max":0,"o":"m 1509 753 b 1459 1040 1509 854 1492 951 b 1359 1227 1434 1107 1401 1170 b 1120 1431 1296 1311 1215 1382 b 799 1507 1024 1480 915 1507 b 798 1507 798 1507 798 1507 l 269 1507 b 249 1508 262 1508 255 1508 b 108 1367 171 1508 108 1445 b 108 1367 108 1367 108 1367 b 108 1366 108 1366 108 1366 l 108 141 b 249 0 108 63 171 0 b 249 0 249 0 249 0 b 798 0 249 0 798 0 b 1509 753 1211 0 1509 333 b 1509 753 1509 753 1509 753 b 1509 753 1509 753 1509 753 b 1509 753 1509 753 1509 753 z m 798 282 b 389 282 757 282 540 282 l 389 1225 l 798 1225 b 972 1189 864 1225 921 1212 b 1076 1121 1011 1172 1045 1149 b 1186 964 1122 1080 1160 1026 b 1227 753 1213 902 1227 830 b 798 282 1227 497 1062 282 z "},"E":{"ha":1381,"x_min":0,"x_max":0,"o":"m 1105 282 l 429 282 l 429 612 l 985 612 b 1126 753 1063 612 1126 676 b 985 894 1126 831 1063 894 b 985 894 985 894 985 894 l 429 894 l 429 1225 l 1105 1225 b 1246 1366 1183 1225 1246 1288 b 1105 1507 1246 1444 1183 1507 l 309 1507 b 288 1508 302 1508 295 1508 b 147 1367 210 1508 147 1445 b 147 1367 147 1367 147 1367 b 147 1366 147 1366 147 1366 l 147 141 b 217 20 147 89 175 44 b 288 0 238 7 262 0 l 1105 0 b 1246 141 1183 0 1246 63 b 1105 282 1246 219 1183 282 z "},"È":{"ha":1381,"x_min":0,"x_max":0,"o":"m 1105 282 l 429 282 l 429 612 l 985 612 b 1126 753 1063 612 1126 676 b 985 894 1126 831 1063 894 b 985 894 985 894 985 894 l 429 894 l 429 1225 l 1105 1225 b 1246 1366 1183 1225 1246 1288 b 1105 1507 1246 1444 1183 1507 l 309 1507 b 288 1508 302 1508 295 1508 b 147 1367 210 1508 147 1445 b 147 1367 147 1367 147 1367 b 147 1366 147 1366 147 1366 l 147 141 b 217 20 147 89 175 44 b 288 0 238 7 262 0 l 1105 0 b 1246 141 1183 0 1246 63 b 1105 282 1246 219 1183 282 z "},"É":{"ha":1381,"x_min":0,"x_max":0,"o":"m 1105 282 l 429 282 l 429 612 l 985 612 b 1126 753 1063 612 1126 676 b 985 894 1126 831 1063 894 b 985 894 985 894 985 894 l 429 894 l 429 1225 l 1105 1225 b 1246 1366 1183 1225 1246 1288 b 1105 1507 1246 1444 1183 1507 l 309 1507 b 288 1508 302 1508 295 1508 b 147 1367 210 1508 147 1445 b 147 1367 147 1367 147 1367 b 147 1366 147 1366 147 1366 l 147 141 b 217 20 147 89 175 44 b 288 0 238 7 262 0 l 1105 0 b 1246 141 1183 0 1246 63 b 1105 282 1246 219 1183 282 z "},"Ê":{"ha":1381,"x_min":0,"x_max":0,"o":"m 1105 282 l 429 282 l 429 612 l 985 612 b 1126 753 1063 612 1126 676 b 985 894 1126 831 1063 894 b 985 894 985 894 985 894 l 429 894 l 429 1225 l 1105 1225 b 1246 1366 1183 1225 1246 1288 b 1105 1507 1246 1444 1183 1507 l 309 1507 b 288 1508 302 1508 295 1508 b 147 1367 210 1508 147 1445 b 147 1367 147 1367 147 1367 b 147 1366 147 1366 147 1366 l 147 141 b 217 20 147 89 175 44 b 288 0 238 7 262 0 l 1105 0 b 1246 141 1183 0 1246 63 b 1105 282 1246 219 1183 282 z "},"F":{"ha":1390,"x_min":0,"x_max":0,"o":"m 1142 1508 b 1121 1506 1135 1508 1128 1507 l 1121 1507 l 304 1507 b 218 1477 271 1507 241 1495 b 206 1466 213 1473 209 1470 b 205 1465 205 1466 205 1466 b 163 1367 179 1440 164 1406 l 163 1367 l 163 141 b 304 0 163 63 226 0 b 445 141 382 0 445 63 l 445 612 l 1001 612 b 1142 753 1079 612 1142 676 b 1001 894 1142 831 1079 894 l 445 894 l 445 1225 l 1121 1225 l 1121 1228 b 1142 1227 1128 1227 1135 1227 b 1283 1367 1220 1227 1283 1290 b 1142 1508 1283 1445 1220 1508 z "},"G":{"ha":1617,"x_min":0,"x_max":0,"o":"m 1475 731 b 1334 872 1475 809 1412 872 l 833 872 b 692 731 755 872 692 809 b 833 590 692 653 755 590 l 1193 590 l 1193 346 b 389 744 857 105 389 333 b 1228 1101 389 1177 913 1405 l 1228 1101 b 1326 1061 1254 1076 1288 1061 b 1467 1202 1404 1061 1467 1124 b 1423 1304 1467 1242 1450 1278 l 1423 1304 b 108 744 934 1775 108 1430 b 169 441 108 637 129 534 b 1430 177 385 -69 1044 -185 b 1430 177 1430 177 1430 177 b 1430 177 1430 177 1430 177 b 1431 177 1431 177 1431 177 b 1431 177 1431 177 1431 177 b 1431 177 1431 177 1431 177 b 1431 178 1431 178 1431 178 b 1431 178 1431 178 1431 178 b 1463 223 1445 190 1455 206 b 1475 280 1471 241 1475 260 l 1475 280 z "},"H":{"ha":1538,"x_min":0,"x_max":0,"o":"m 1377 753 l 1377 1366 l 1377 1366 b 1377 1367 1377 1366 1377 1367 b 1236 1508 1377 1445 1314 1508 b 1095 1367 1158 1508 1095 1445 b 1095 1366 1095 1367 1095 1366 l 1095 1366 l 1095 894 l 608 894 b 467 753 530 894 467 831 b 608 612 467 676 530 612 l 1095 612 l 1095 141 b 1236 0 1095 63 1158 0 b 1377 141 1314 0 1377 63 z m 389 1367 b 249 1508 389 1445 326 1508 b 108 1367 171 1508 108 1445 b 108 1366 108 1367 108 1366 l 108 1366 l 108 141 b 249 0 108 63 171 0 b 389 141 326 0 389 63 l 389 1366 l 389 1366 b 389 1367 389 1366 389 1367 z "},"I":{"ha":599,"x_min":0,"x_max":0,"o":"m 439 1370 b 298 1511 439 1448 376 1511 b 158 1370 221 1511 158 1448 l 158 145 l 158 145 b 158 143 158 144 158 143 b 298 2 158 65 221 2 b 439 143 376 2 439 65 b 439 145 439 143 439 144 l 439 145 z "},"Ì":{"ha":599,"x_min":0,"x_max":0,"o":"m 439 1370 b 298 1511 439 1448 376 1511 b 158 1370 221 1511 158 1448 l 158 145 l 158 145 b 158 143 158 144 158 143 b 298 2 158 65 221 2 b 439 143 376 2 439 65 b 439 145 439 143 439 144 l 439 145 z "},"Í":{"ha":599,"x_min":0,"x_max":0,"o":"m 439 1370 b 298 1511 439 1448 376 1511 b 158 1370 221 1511 158 1448 l 158 145 l 158 145 b 158 143 158 144 158 143 b 298 2 158 65 221 2 b 439 143 376 2 439 65 b 439 145 439 143 439 144 l 439 145 z "},"Î":{"ha":599,"x_min":0,"x_max":0,"o":"m 439 1370 b 298 1511 439 1448 376 1511 b 158 1370 221 1511 158 1448 l 158 145 l 158 145 b 158 143 158 144 158 143 b 298 2 158 65 221 2 b 439 143 376 2 439 65 b 439 145 439 143 439 144 l 439 145 z "},"Ï":{"ha":599,"x_min":0,"x_max":0,"o":"m 439 1370 b 298 1511 439 1448 376 1511 b 158 1370 221 1511 158 1448 l 158 145 l 158 145 b 158 143 158 144 158 143 b 298 2 158 65 221 2 b 439 143 376 2 439 65 b 439 145 439 143 439 144 l 439 145 z "},"J":{"ha":1269,"x_min":0,"x_max":0,"o":"m 1005 1513 b 864 1372 927 1513 864 1450 l 864 515 b 625 264 864 333 782 264 b 352 386 553 264 477 251 l 352 386 b 249 431 326 413 289 431 b 108 290 171 431 108 368 b 146 194 108 253 122 219 l 146 194 b 147 193 146 194 146 193 b 150 190 148 192 149 191 b 625 -17 358 -32 533 -17 b 1146 515 949 -17 1146 187 l 1146 1372 b 1005 1513 1146 1450 1083 1513 z "},"K":{"ha":1447,"x_min":0,"x_max":0,"o":"m 1307 230 l 1307 230 l 1307 230 b 1307 230 1307 230 1307 230 l 804 843 l 1214 1268 b 1217 1272 1215 1269 1216 1270 b 1222 1278 1219 1274 1221 1276 b 1226 1283 1224 1279 1225 1281 b 1230 1289 1228 1285 1229 1287 b 1234 1295 1232 1291 1233 1293 b 1237 1301 1235 1297 1236 1299 b 1240 1307 1238 1303 1239 1305 b 1243 1313 1241 1309 1242 1311 b 1245 1319 1244 1315 1245 1317 b 1248 1326 1246 1322 1247 1324 b 1249 1333 1248 1328 1249 1330 b 1251 1339 1250 1335 1250 1337 b 1252 1347 1251 1342 1252 1344 b 1253 1353 1252 1349 1253 1351 b 1253 1361 1253 1356 1253 1358 b 1253 1366 1253 1363 1253 1364 b 1253 1367 1253 1366 1253 1367 b 1253 1375 1253 1370 1253 1372 b 1253 1381 1253 1377 1253 1379 b 1251 1388 1252 1383 1252 1386 b 1250 1395 1251 1390 1251 1393 b 1249 1401 1250 1397 1249 1399 b 1247 1408 1248 1403 1248 1406 b 1245 1414 1246 1410 1246 1412 b 1242 1421 1244 1416 1243 1418 b 1239 1428 1241 1423 1240 1425 b 1236 1433 1238 1429 1237 1431 b 1232 1440 1235 1435 1234 1437 b 1229 1445 1231 1441 1230 1443 b 1225 1450 1228 1447 1226 1448 b 1221 1456 1224 1452 1222 1454 b 1217 1460 1220 1457 1218 1459 b 1211 1466 1215 1462 1213 1464 b 1210 1467 1211 1467 1211 1467 b 1207 1470 1209 1468 1208 1469 b 1201 1475 1205 1472 1203 1474 b 1195 1479 1199 1477 1197 1478 b 1190 1483 1194 1481 1192 1482 b 1184 1487 1188 1485 1186 1486 b 1178 1490 1182 1488 1180 1489 b 1172 1493 1176 1491 1174 1492 b 1166 1496 1170 1494 1168 1495 b 1159 1498 1164 1497 1162 1498 b 1153 1501 1157 1499 1155 1500 b 1146 1502 1151 1501 1148 1502 b 1140 1504 1144 1503 1142 1503 b 1132 1505 1137 1504 1135 1505 b 1126 1506 1130 1505 1128 1506 b 1113 1507 1122 1506 1117 1507 b 1113 1507 1113 1507 1113 1507 b 1112 1507 1113 1507 1113 1507 b 1099 1506 1108 1507 1103 1506 b 1091 1505 1096 1506 1093 1505 b 1085 1504 1089 1504 1087 1504 b 1076 1502 1082 1503 1079 1502 b 1071 1500 1075 1501 1073 1501 b 1063 1497 1069 1500 1066 1498 b 1058 1496 1062 1497 1060 1496 b 1051 1492 1056 1495 1053 1493 b 1046 1490 1049 1491 1047 1491 b 1034 1482 1042 1487 1038 1485 b 1030 1479 1032 1481 1031 1480 b 1023 1474 1027 1478 1025 1476 b 1019 1470 1021 1473 1020 1472 b 1012 1464 1017 1468 1014 1466 b 1011 1463 1012 1464 1012 1464 l 389 819 l 389 1373 l 389 1373 b 249 1507 385 1447 324 1507 b 108 1373 173 1507 112 1447 l 108 1373 l 108 141 b 249 0 108 63 171 0 b 389 141 326 0 389 63 l 389 413 l 607 639 l 607 639 l 1089 51 l 1089 51 b 1198 0 1115 20 1154 0 b 1339 141 1276 0 1339 63 b 1307 230 1339 175 1327 206 z "},"L":{"ha":1256,"x_min":0,"x_max":0,"o":"m 1006 282 l 421 282 l 421 1366 b 281 1507 421 1444 358 1507 b 140 1366 203 1507 140 1444 l 140 141 b 281 0 140 63 203 0 l 1006 0 b 1147 141 1084 0 1147 63 b 1006 282 1147 219 1084 282 z "},"M":{"ha":1797,"x_min":0,"x_max":0,"o":"m 1597 1371 b 1597 1374 1597 1372 1597 1373 b 1596 1382 1597 1377 1596 1379 b 1595 1388 1596 1384 1595 1386 b 1593 1396 1595 1391 1594 1394 b 1592 1402 1593 1398 1593 1400 b 1589 1410 1591 1405 1590 1407 b 1587 1415 1589 1412 1588 1414 b 1584 1423 1586 1418 1585 1420 b 1583 1426 1584 1424 1583 1425 b 1582 1429 1582 1427 1582 1428 b 1578 1435 1580 1431 1579 1433 b 1574 1441 1577 1437 1576 1439 b 1570 1447 1573 1443 1571 1445 b 1566 1452 1569 1449 1567 1450 b 1561 1458 1564 1454 1563 1456 b 1557 1463 1559 1460 1558 1461 b 1550 1469 1555 1465 1553 1467 b 1547 1472 1549 1470 1548 1471 b 1546 1472 1547 1472 1547 1472 b 1545 1473 1546 1472 1546 1473 b 1542 1476 1544 1474 1543 1475 b 1538 1478 1541 1477 1539 1478 b 1534 1482 1537 1479 1535 1481 b 1527 1486 1531 1483 1529 1484 b 1523 1488 1525 1486 1524 1487 b 1512 1493 1519 1490 1515 1492 b 1511 1494 1511 1494 1511 1494 b 1501 1498 1508 1495 1504 1496 b 1501 1498 1501 1498 1501 1498 b 1500 1498 1500 1498 1500 1498 b 1500 1498 1500 1498 1500 1498 b 1500 1498 1500 1498 1500 1498 b 1499 1498 1500 1498 1499 1498 b 1496 1499 1498 1498 1497 1499 b 1487 1501 1493 1500 1490 1501 b 1483 1502 1485 1502 1484 1502 b 1474 1503 1480 1503 1477 1503 b 1470 1504 1472 1504 1471 1504 b 1457 1505 1465 1504 1461 1505 b 1450 1504 1454 1505 1452 1505 b 1446 1504 1449 1504 1447 1504 b 1438 1503 1444 1504 1441 1504 b 1432 1502 1436 1503 1434 1503 b 1424 1501 1430 1502 1427 1501 b 1419 1499 1422 1500 1420 1500 b 1410 1497 1416 1499 1413 1498 b 1405 1495 1409 1496 1407 1495 b 1397 1491 1402 1494 1400 1493 b 1394 1490 1396 1491 1395 1491 b 1392 1489 1393 1490 1393 1489 b 1385 1485 1390 1488 1387 1486 b 1380 1482 1383 1484 1381 1483 b 1373 1477 1377 1480 1375 1479 b 1368 1473 1372 1476 1370 1475 b 1362 1468 1366 1472 1364 1470 b 1358 1464 1361 1467 1359 1466 b 1352 1458 1356 1462 1354 1460 b 1349 1454 1351 1457 1350 1456 b 1348 1454 1349 1454 1348 1454 b 1347 1453 1348 1453 1348 1453 b 1345 1449 1346 1451 1345 1450 l 1344 1448 l 844 792 l 363 1446 l 363 1446 b 249 1505 337 1481 296 1505 b 108 1364 171 1505 108 1442 b 108 1362 108 1363 108 1363 l 108 1362 b 108 141 108 1362 108 141 l 108 139 l 108 139 b 249 0 109 62 171 0 b 389 139 326 0 388 62 l 389 139 b 389 141 389 139 389 141 l 389 935 b 722 484 594 656 679 538 b 727 476 723 482 725 479 l 729 474 b 742 458 733 468 737 463 b 756 446 746 454 751 450 b 781 430 764 438 771 435 b 790 426 784 429 787 427 b 928 446 841 406 892 417 b 941 457 933 449 937 453 b 954 472 946 461 950 466 l 956 474 l 1316 947 l 1316 139 l 1316 139 b 1457 0 1317 62 1379 0 b 1597 139 1534 0 1596 62 l 1597 139 l 1597 1364 b 1597 1371 1597 1366 1597 1368 z "},"N":{"ha":1571,"x_min":0,"x_max":0,"o":"m 1445 141 b 1445 1366 1445 141 1445 1366 b 1304 1507 1445 1444 1382 1507 b 1164 1366 1227 1507 1164 1444 l 1164 1366 l 1164 524 l 373 1456 l 373 1456 b 371 1458 373 1457 372 1457 b 365 1465 369 1461 367 1463 b 365 1466 365 1465 365 1466 b 280 1506 342 1488 313 1502 b 265 1507 275 1506 270 1507 b 251 1506 261 1507 256 1506 b 247 1505 250 1506 248 1505 b 237 1504 244 1505 240 1504 b 232 1502 236 1503 234 1503 b 224 1500 230 1502 227 1501 b 219 1499 222 1500 221 1499 b 211 1496 216 1498 214 1497 b 206 1493 209 1495 208 1494 b 199 1490 204 1492 201 1491 b 194 1487 197 1489 196 1488 b 187 1483 192 1486 190 1484 b 183 1480 186 1482 184 1481 b 177 1475 181 1478 179 1477 b 172 1471 175 1474 174 1472 b 167 1466 170 1469 168 1468 b 162 1462 165 1465 164 1463 b 158 1456 161 1460 159 1458 b 154 1451 156 1455 155 1453 b 150 1446 152 1449 151 1448 b 146 1440 148 1444 147 1442 b 143 1434 145 1438 144 1436 b 139 1428 141 1432 140 1430 b 137 1422 138 1426 137 1424 b 134 1416 136 1420 135 1418 b 132 1410 133 1414 132 1412 b 130 1403 131 1407 130 1405 b 128 1396 129 1401 129 1399 b 127 1389 128 1394 127 1392 b 126 1383 126 1387 126 1385 b 125 1376 125 1380 125 1378 b 125 1371 125 1374 125 1373 b 125 1366 125 1369 125 1368 l 125 141 b 265 0 125 63 188 0 b 406 141 343 0 406 63 l 406 982 l 1197 50 l 1197 50 b 1304 0 1223 20 1261 0 b 1445 136 1381 0 1442 60 l 1445 136 b 1445 141 1445 137 1445 139 b 1445 141 1445 141 1445 141 b 1445 141 1445 141 1445 141 z "},"Ñ":{"ha":1571,"x_min":0,"x_max":0,"o":"m 1445 141 b 1445 1366 1445 141 1445 1366 b 1304 1507 1445 1444 1382 1507 b 1164 1366 1227 1507 1164 1444 l 1164 1366 l 1164 524 l 373 1456 l 373 1456 b 371 1458 373 1457 372 1457 b 365 1465 369 1461 367 1463 b 365 1466 365 1465 365 1466 b 280 1506 342 1488 313 1502 b 265 1507 275 1506 270 1507 b 251 1506 261 1507 256 1506 b 247 1505 250 1506 248 1505 b 237 1504 244 1505 240 1504 b 232 1502 236 1503 234 1503 b 224 1500 230 1502 227 1501 b 219 1499 222 1500 221 1499 b 211 1496 216 1498 214 1497 b 206 1493 209 1495 208 1494 b 199 1490 204 1492 201 1491 b 194 1487 197 1489 196 1488 b 187 1483 192 1486 190 1484 b 183 1480 186 1482 184 1481 b 177 1475 181 1478 179 1477 b 172 1471 175 1474 174 1472 b 167 1466 170 1469 168 1468 b 162 1462 165 1465 164 1463 b 158 1456 161 1460 159 1458 b 154 1451 156 1455 155 1453 b 150 1446 152 1449 151 1448 b 146 1440 148 1444 147 1442 b 143 1434 145 1438 144 1436 b 139 1428 141 1432 140 1430 b 137 1422 138 1426 137 1424 b 134 1416 136 1420 135 1418 b 132 1410 133 1414 132 1412 b 130 1403 131 1407 130 1405 b 128 1396 129 1401 129 1399 b 127 1389 128 1394 127 1392 b 126 1383 126 1387 126 1385 b 125 1376 125 1380 125 1378 b 125 1371 125 1374 125 1373 b 125 1366 125 1369 125 1368 l 125 141 b 265 0 125 63 188 0 b 406 141 343 0 406 63 l 406 982 l 1197 50 l 1197 50 b 1304 0 1223 20 1261 0 b 1445 136 1381 0 1442 60 l 1445 136 b 1445 141 1445 137 1445 139 b 1445 141 1445 141 1445 141 b 1445 141 1445 141 1445 141 z "},"O":{"ha":1811,"x_min":0,"x_max":0,"o":"m 906 1543 b 905 1543 905 1543 905 1543 l 896 1543 l 896 1543 b 108 745 460 1538 108 1182 b 905 -53 108 306 464 -53 l 905 -53 b 905 -53 905 -53 905 -53 b 906 -53 906 -53 906 -53 l 906 -53 b 1703 744 1347 -53 1703 305 b 1703 745 1703 744 1703 745 b 906 1543 1703 1186 1346 1543 z m 905 229 b 705 269 834 229 766 243 b 389 745 520 347 389 530 b 905 1261 389 1031 621 1261 b 1422 745 1192 1261 1422 1029 b 905 229 1422 459 1190 229 z "},"Ò":{"ha":1811,"x_min":0,"x_max":0,"o":"m 906 1543 b 905 1543 905 1543 905 1543 l 896 1543 l 896 1543 b 108 745 460 1538 108 1182 b 905 -53 108 306 464 -53 l 905 -53 b 905 -53 905 -53 905 -53 b 906 -53 906 -53 906 -53 l 906 -53 b 1703 744 1347 -53 1703 305 b 1703 745 1703 744 1703 745 b 906 1543 1703 1186 1346 1543 z m 905 229 b 705 269 834 229 766 243 b 389 745 520 347 389 530 b 905 1261 389 1031 621 1261 b 1422 745 1192 1261 1422 1029 b 905 229 1422 459 1190 229 z "},"Ó":{"ha":1811,"x_min":0,"x_max":0,"o":"m 906 1543 b 905 1543 905 1543 905 1543 l 896 1543 l 896 1543 b 108 745 460 1538 108 1182 b 905 -53 108 306 464 -53 l 905 -53 b 905 -53 905 -53 905 -53 b 906 -53 906 -53 906 -53 l 906 -53 b 1703 744 1347 -53 1703 305 b 1703 745 1703 744 1703 745 b 906 1543 1703 1186 1346 1543 z m 905 229 b 705 269 834 229 766 243 b 389 745 520 347 389 530 b 905 1261 389 1031 621 1261 b 1422 745 1192 1261 1422 1029 b 905 229 1422 459 1190 229 z "},"Ô":{"ha":1811,"x_min":0,"x_max":0,"o":"m 906 1543 b 905 1543 905 1543 905 1543 l 896 1543 l 896 1543 b 108 745 460 1538 108 1182 b 905 -53 108 306 464 -53 l 905 -53 b 905 -53 905 -53 905 -53 b 906 -53 906 -53 906 -53 l 906 -53 b 1703 744 1347 -53 1703 305 b 1703 745 1703 744 1703 745 b 906 1543 1703 1186 1346 1543 z m 905 229 b 705 269 834 229 766 243 b 389 745 520 347 389 530 b 905 1261 389 1031 621 1261 b 1422 745 1192 1261 1422 1029 b 905 229 1422 459 1190 229 z "},"Õ":{"ha":1811,"x_min":0,"x_max":0,"o":"m 906 1543 b 905 1543 905 1543 905 1543 l 896 1543 l 896 1543 b 108 745 460 1538 108 1182 b 905 -53 108 306 464 -53 l 905 -53 b 905 -53 905 -53 905 -53 b 906 -53 906 -53 906 -53 l 906 -53 b 1703 744 1347 -53 1703 305 b 1703 745 1703 744 1703 745 b 906 1543 1703 1186 1346 1543 z m 905 229 b 705 269 834 229 766 243 b 389 745 520 347 389 530 b 905 1261 389 1031 621 1261 b 1422 745 1192 1261 1422 1029 b 905 229 1422 459 1190 229 z "},"Ø":{"ha":1811,"x_min":0,"x_max":0,"o":"m 906 1543 b 905 1543 905 1543 905 1543 l 896 1543 l 896 1543 b 108 745 460 1538 108 1182 b 905 -53 108 306 464 -53 l 905 -53 b 905 -53 905 -53 905 -53 b 906 -53 906 -53 906 -53 l 906 -53 b 1703 744 1347 -53 1703 305 b 1703 745 1703 744 1703 745 b 906 1543 1703 1186 1346 1543 z m 905 229 b 705 269 834 229 766 243 b 389 745 520 347 389 530 b 905 1261 389 1031 621 1261 b 1422 745 1192 1261 1422 1029 b 905 229 1422 459 1190 229 z "},"P":{"ha":1396,"x_min":0,"x_max":0,"o":"m 1246 1180 b 1052 1415 1205 1276 1138 1358 b 912 1483 1010 1444 963 1467 b 754 1507 862 1498 809 1507 b 754 1507 754 1507 754 1507 l 249 1507 b 108 1366 171 1507 108 1444 l 108 141 b 249 0 108 63 171 0 b 389 141 326 0 389 63 l 389 438 b 754 438 389 438 754 438 b 962 480 827 438 898 453 b 1196 674 1058 521 1139 589 b 1264 814 1225 716 1248 763 b 1288 972 1279 864 1288 917 b 1246 1180 1288 1046 1273 1116 z m 986 874 b 895 763 967 829 935 790 b 829 731 875 749 852 739 b 754 720 805 724 780 720 l 389 720 l 389 1225 l 754 1225 b 852 1205 789 1225 822 1218 b 963 1114 897 1186 936 1154 b 995 1048 977 1093 987 1071 b 1006 972 1002 1024 1006 999 b 986 874 1006 937 999 904 z "},"Q":{"ha":1811,"x_min":0,"x_max":0,"o":"m 1594 34 b 1598 40 1595 36 1597 38 b 1602 46 1600 42 1601 44 b 1605 52 1603 48 1604 50 b 1608 58 1606 54 1607 56 b 1611 64 1609 60 1610 62 b 1614 71 1612 66 1613 69 b 1616 77 1614 73 1615 75 b 1618 84 1617 79 1617 82 b 1619 91 1618 86 1619 88 b 1620 98 1620 93 1620 96 b 1621 104 1621 100 1621 102 b 1621 132 1622 114 1622 123 b 1620 138 1621 134 1621 136 b 1619 146 1620 141 1620 143 b 1618 153 1619 148 1618 150 b 1616 159 1617 155 1617 157 b 1614 166 1615 161 1614 164 b 1611 172 1613 168 1612 170 b 1608 178 1610 174 1609 176 b 1605 185 1607 180 1606 182 b 1602 190 1604 186 1603 188 b 1598 196 1601 192 1600 194 b 1594 202 1597 198 1595 200 b 1590 207 1593 204 1591 206 b 1581 218 1587 211 1584 214 l 1535 263 b 1469 1317 1762 560 1778 1009 b 1469 1318 1469 1318 1469 1318 l 1469 1318 b 341 1317 1158 1628 653 1630 b 341 189 30 1006 30 501 b 332 199 338 192 335 196 b 341 189 335 196 338 192 b 905 -44 493 37 696 -44 b 1327 73 1066 -44 1209 0 l 1382 19 b 1382 18 1382 19 1382 19 b 1392 9 1385 15 1388 12 b 1397 6 1394 8 1395 7 b 1403 1 1399 4 1401 2 b 1409 -3 1405 0 1407 -1 b 1415 -6 1411 -4 1413 -5 b 1421 -9 1417 -7 1419 -8 b 1427 -12 1423 -10 1425 -11 b 1434 -14 1429 -13 1431 -13 b 1440 -17 1436 -15 1438 -16 b 1447 -18 1442 -17 1445 -18 b 1454 -20 1449 -19 1451 -19 b 1461 -21 1456 -20 1459 -21 b 1467 -22 1463 -21 1465 -22 b 1481 -23 1472 -22 1477 -23 l 1481 -23 b 1495 -22 1486 -23 1490 -22 b 1501 -21 1497 -22 1499 -21 b 1509 -20 1504 -21 1506 -20 b 1516 -18 1511 -19 1513 -19 b 1522 -17 1518 -18 1520 -17 b 1529 -14 1524 -16 1526 -15 b 1535 -12 1531 -13 1533 -13 b 1541 -9 1537 -11 1539 -10 b 1548 -6 1543 -8 1545 -7 b 1553 -3 1549 -5 1551 -4 b 1559 1 1555 -1 1557 0 b 1565 6 1561 2 1563 4 b 1570 9 1567 7 1569 8 b 1581 18 1574 12 1577 15 b 1581 19 1581 19 1581 19 b 1581 19 1581 19 1581 19 b 1590 29 1584 22 1587 25 b 1594 34 1591 31 1593 32 z m 425 429 b 342 389 393 425 364 411 b 425 429 364 410 392 425 z m 301 302 b 300 289 300 298 300 293 b 332 200 300 255 312 224 b 301 302 306 230 297 267 z m 302 313 b 301 304 302 310 301 307 b 302 313 301 307 302 310 z m 427 429 b 441 430 432 429 436 430 b 455 429 446 430 450 429 b 441 430 450 429 446 430 b 427 429 436 430 432 429 z m 540 388 b 540 389 540 388 540 389 b 540 388 540 389 540 388 b 537 391 539 389 538 390 b 540 389 538 390 539 390 b 540 1118 340 590 338 916 l 540 1118 b 1270 1118 743 1321 1070 1319 b 1422 753 1369 1019 1422 889 b 1334 464 1422 642 1389 544 l 1097 701 b 1087 711 1094 705 1090 708 b 1082 715 1085 712 1083 713 b 1076 719 1080 716 1078 718 b 1069 723 1074 720 1071 722 b 1064 726 1068 724 1066 725 b 1057 729 1062 727 1059 728 b 1051 732 1055 730 1053 731 b 1045 734 1049 733 1047 734 b 1038 737 1043 735 1041 736 b 1032 738 1036 737 1034 738 b 1025 740 1030 739 1027 740 b 1017 741 1022 740 1020 741 b 1011 742 1015 741 1013 742 b 984 742 1002 743 993 743 b 977 741 981 742 979 741 b 970 740 975 741 972 741 b 963 738 968 740 965 739 b 957 737 961 738 959 737 b 950 734 954 736 952 735 b 944 732 948 734 946 733 b 937 729 941 731 939 730 b 931 726 935 728 933 727 b 925 723 929 725 927 724 b 919 719 923 722 921 720 b 913 715 917 718 915 716 b 908 711 912 713 910 712 b 898 702 905 708 901 705 b 898 701 898 702 898 702 b 898 701 898 701 898 701 b 889 691 894 698 891 695 b 885 686 887 690 886 688 b 880 680 883 684 882 682 b 877 674 879 678 878 676 b 873 668 875 672 874 670 b 870 662 872 666 871 664 b 867 656 869 660 868 658 b 865 649 866 654 866 652 b 863 643 864 647 863 645 b 861 636 862 641 862 639 b 859 629 860 634 860 632 b 858 622 859 627 859 624 b 857 616 858 620 858 618 b 857 588 856 607 856 597 b 858 582 858 586 858 584 b 859 574 859 579 859 577 b 861 567 860 572 860 570 b 863 561 862 565 862 563 b 865 554 863 559 864 557 b 867 548 866 552 866 550 b 870 542 868 546 869 544 b 873 536 871 540 872 538 b 877 530 874 534 875 532 b 880 524 878 528 879 526 b 885 518 882 522 883 520 b 889 513 886 516 887 514 b 898 502 891 509 895 506 b 898 502 898 502 898 502 l 1117 283 b 540 388 935 202 707 222 z m 461 428 b 468 427 463 428 466 427 b 461 428 466 427 463 428 z m 488 421 b 495 419 490 420 493 420 b 488 421 493 420 490 420 z m 501 416 b 507 413 503 415 505 414 b 501 416 505 414 503 415 z m 513 410 b 519 406 515 408 517 407 b 513 410 517 407 515 408 z "},"R":{"ha":1444,"x_min":0,"x_max":0,"o":"m 1308 227 l 1052 557 b 1337 1008 1223 638 1337 811 b 838 1507 1337 1283 1114 1507 b 838 1507 838 1507 838 1507 l 249 1507 b 108 1366 171 1507 108 1444 b 108 1366 108 1366 108 1366 b 108 141 108 1366 108 141 b 249 0 108 63 171 0 b 389 141 326 0 389 63 l 389 509 l 734 509 l 1085 55 l 1085 55 b 1196 0 1111 22 1151 0 b 1337 141 1274 0 1337 63 b 1308 227 1337 173 1326 203 z m 389 1225 l 838 1225 b 903 800 1084 1225 1141 874 b 838 790 882 794 861 790 l 804 790 b 803 790 804 790 803 790 b 801 790 802 790 802 790 l 803 790 b 804 790 803 790 804 790 b 801 790 803 790 802 790 l 801 790 l 389 790 z m 815 790 b 805 790 812 790 808 790 b 810 790 807 790 808 790 b 815 790 811 790 813 790 z "},"S":{"ha":1433,"x_min":0,"x_max":0,"o":"m 712 893 b 438 1064 611 915 438 962 b 438 1067 438 1065 438 1066 b 438 1068 438 1068 438 1068 b 438 1068 438 1068 438 1068 b 670 1250 441 1185 486 1250 b 1010 1151 757 1250 842 1238 l 1010 1151 b 1075 1136 1029 1141 1051 1136 b 1215 1276 1152 1136 1215 1199 b 1139 1401 1215 1331 1185 1378 l 1139 1402 b 954 1483 1082 1431 1019 1460 b 157 1075 623 1599 168 1532 l 157 1075 b 157 1075 157 1075 157 1075 b 157 1074 157 1074 157 1074 b 156 1064 156 1071 156 1068 b 172 955 156 1026 162 990 b 1004 410 300 525 1004 677 b 740 231 1004 320 938 231 b 324 369 578 231 455 283 l 324 369 b 249 391 302 383 276 391 b 108 250 171 391 108 328 b 170 133 108 201 133 158 l 170 133 b 740 -50 349 16 523 -50 b 1286 410 1091 -50 1286 159 b 712 893 1286 712 1005 832 z "},"T":{"ha":1393,"x_min":0,"x_max":0,"o":"m 1184 1507 l 156 1507 b 15 1366 78 1507 15 1444 b 156 1225 15 1288 78 1225 l 529 1225 l 529 141 b 670 0 529 63 592 0 b 811 141 748 0 811 63 l 811 141 l 811 1225 l 1184 1225 b 1325 1366 1262 1225 1325 1288 b 1184 1507 1325 1444 1262 1507 z "},"U":{"ha":1546,"x_min":0,"x_max":0,"o":"m 1276 1516 b 1135 1375 1198 1516 1135 1453 b 1135 1371 1135 1374 1135 1373 l 1135 570 l 1136 570 b 1135 563 1136 568 1135 566 b 1135 562 1135 563 1135 563 b 762 246 1135 391 953 246 b 761 246 762 246 761 246 b 761 246 761 246 761 246 b 389 563 570 246 389 391 b 389 570 389 566 389 568 l 389 570 l 389 1371 b 389 1375 389 1373 389 1374 b 249 1516 389 1453 326 1516 b 108 1375 171 1516 108 1453 l 108 570 l 108 570 b 108 563 108 568 108 566 b 761 -35 108 231 417 -35 b 1417 563 1104 -35 1417 229 b 1417 570 1417 566 1417 568 l 1417 570 l 1417 1375 b 1276 1516 1417 1453 1354 1516 z "},"Ù":{"ha":1546,"x_min":0,"x_max":0,"o":"m 1276 1516 b 1135 1375 1198 1516 1135 1453 b 1135 1371 1135 1374 1135 1373 l 1135 570 l 1136 570 b 1135 563 1136 568 1135 566 b 1135 562 1135 563 1135 563 b 762 246 1135 391 953 246 b 761 246 762 246 761 246 b 761 246 761 246 761 246 b 389 563 570 246 389 391 b 389 570 389 566 389 568 l 389 570 l 389 1371 b 389 1375 389 1373 389 1374 b 249 1516 389 1453 326 1516 b 108 1375 171 1516 108 1453 l 108 570 l 108 570 b 108 563 108 568 108 566 b 761 -35 108 231 417 -35 b 1417 563 1104 -35 1417 229 b 1417 570 1417 566 1417 568 l 1417 570 l 1417 1375 b 1276 1516 1417 1453 1354 1516 z "},"Ú":{"ha":1546,"x_min":0,"x_max":0,"o":"m 1276 1516 b 1135 1375 1198 1516 1135 1453 b 1135 1371 1135 1374 1135 1373 l 1135 570 l 1136 570 b 1135 563 1136 568 1135 566 b 1135 562 1135 563 1135 563 b 762 246 1135 391 953 246 b 761 246 762 246 761 246 b 761 246 761 246 761 246 b 389 563 570 246 389 391 b 389 570 389 566 389 568 l 389 570 l 389 1371 b 389 1375 389 1373 389 1374 b 249 1516 389 1453 326 1516 b 108 1375 171 1516 108 1453 l 108 570 l 108 570 b 108 563 108 568 108 566 b 761 -35 108 231 417 -35 b 1417 563 1104 -35 1417 229 b 1417 570 1417 566 1417 568 l 1417 570 l 1417 1375 b 1276 1516 1417 1453 1354 1516 z "},"Û":{"ha":1546,"x_min":0,"x_max":0,"o":"m 1276 1516 b 1135 1375 1198 1516 1135 1453 b 1135 1371 1135 1374 1135 1373 l 1135 570 l 1136 570 b 1135 563 1136 568 1135 566 b 1135 562 1135 563 1135 563 b 762 246 1135 391 953 246 b 761 246 762 246 761 246 b 761 246 761 246 761 246 b 389 563 570 246 389 391 b 389 570 389 566 389 568 l 389 570 l 389 1371 b 389 1375 389 1373 389 1374 b 249 1516 389 1453 326 1516 b 108 1375 171 1516 108 1453 l 108 570 l 108 570 b 108 563 108 568 108 566 b 761 -35 108 231 417 -35 b 1417 563 1104 -35 1417 229 b 1417 570 1417 566 1417 568 l 1417 570 l 1417 1375 b 1276 1516 1417 1453 1354 1516 z "},"V":{"ha":1633,"x_min":0,"x_max":0,"o":"m 1526 1366 b 1385 1507 1526 1444 1463 1507 b 1257 1425 1328 1507 1280 1473 l 1257 1425 l 817 475 l 376 1425 l 376 1425 b 249 1507 354 1473 305 1507 b 108 1366 171 1507 108 1444 b 121 1307 108 1345 113 1325 l 121 1307 l 689 82 l 689 82 b 817 0 713 30 763 0 b 945 83 875 0 923 35 l 945 82 l 1513 1307 l 1512 1307 b 1526 1366 1521 1325 1526 1345 z "},"W":{"ha":2310,"x_min":0,"x_max":0,"o":"m 2268 1366 b 2127 1507 2268 1444 2205 1507 b 1995 1415 2067 1507 2016 1469 l 1995 1416 l 1668 548 l 1356 1413 l 1355 1414 b 1354 1417 1355 1415 1355 1416 b 1354 1417 1354 1417 1354 1417 b 1354 1417 1354 1417 1354 1417 b 1353 1419 1354 1418 1354 1418 b 1350 1425 1353 1421 1352 1423 b 1348 1431 1350 1427 1349 1429 b 1345 1437 1347 1433 1346 1435 b 1341 1442 1343 1439 1342 1441 b 1338 1447 1340 1444 1339 1446 b 1333 1453 1336 1449 1335 1451 b 1330 1457 1332 1455 1331 1456 b 1327 1461 1329 1459 1328 1460 b 1324 1463 1326 1462 1325 1462 b 1320 1468 1323 1465 1322 1466 b 1315 1473 1318 1469 1316 1471 b 1309 1477 1313 1474 1311 1476 b 1304 1481 1308 1478 1306 1480 b 1298 1485 1302 1482 1300 1484 b 1293 1488 1296 1486 1294 1487 b 1285 1492 1290 1490 1288 1491 b 1280 1494 1284 1493 1282 1494 b 1272 1498 1278 1495 1275 1497 b 1267 1499 1271 1498 1269 1499 b 1260 1502 1265 1500 1262 1501 b 1254 1503 1258 1502 1256 1503 b 1247 1504 1251 1504 1249 1504 b 1239 1506 1244 1505 1242 1505 b 1234 1506 1237 1506 1235 1506 b 1228 1507 1232 1506 1230 1506 b 1228 1507 1228 1507 1228 1507 b 1227 1507 1228 1507 1227 1507 b 1223 1507 1226 1507 1225 1507 b 1210 1506 1219 1507 1214 1506 b 1206 1505 1208 1506 1207 1506 b 1197 1504 1203 1505 1200 1505 b 1192 1503 1195 1504 1193 1503 b 1185 1501 1189 1502 1187 1502 b 1179 1499 1183 1501 1181 1500 b 1177 1499 1178 1499 1178 1499 l 1177 1499 b 1177 1499 1177 1499 1177 1499 b 1177 1499 1177 1499 1177 1499 b 1174 1498 1176 1498 1175 1498 b 1165 1494 1171 1496 1168 1495 b 1160 1492 1163 1493 1162 1492 b 1152 1487 1158 1490 1155 1489 b 1147 1484 1151 1486 1149 1485 b 1141 1480 1145 1483 1143 1481 b 1135 1476 1139 1479 1137 1477 b 1130 1471 1133 1474 1132 1473 b 1126 1468 1129 1470 1127 1469 b 1124 1466 1125 1467 1125 1467 b 1121 1463 1123 1465 1122 1464 b 1115 1457 1119 1461 1117 1459 b 1112 1452 1114 1455 1113 1454 b 1108 1446 1110 1450 1109 1448 b 1104 1441 1106 1444 1105 1443 b 1101 1435 1103 1439 1102 1437 b 1097 1429 1099 1433 1098 1431 b 1096 1426 1097 1428 1096 1427 b 1094 1422 1095 1424 1094 1423 l 1094 1421 b 1094 1421 1094 1421 1094 1421 b 1094 1421 1094 1421 1094 1421 l 1094 1421 l 702 522 l 381 1414 l 381 1413 b 249 1507 361 1468 310 1507 b 108 1366 171 1507 108 1444 b 116 1318 108 1349 111 1333 l 116 1318 l 557 93 l 557 93 b 558 92 558 93 558 92 b 558 92 558 92 558 92 b 558 91 558 92 558 91 b 564 79 560 87 562 83 b 569 69 565 75 567 72 b 570 67 569 68 570 67 b 577 56 573 63 575 60 b 578 55 578 56 578 56 b 587 45 581 52 584 48 b 587 45 587 45 587 45 b 587 45 587 45 587 45 b 687 0 613 17 649 1 b 687 0 687 0 687 0 b 687 0 687 0 687 0 b 690 0 688 0 689 0 b 710 1 697 0 703 1 b 710 2 710 1 710 2 b 720 3 714 2 717 3 b 730 6 723 4 727 5 b 730 6 730 6 730 6 b 730 6 730 6 730 6 b 731 6 730 6 730 6 b 731 6 731 6 731 6 b 738 8 733 7 735 8 b 741 9 739 9 740 9 b 741 10 741 9 741 10 b 741 10 741 10 741 10 b 753 15 745 11 749 13 b 762 20 756 17 759 18 b 764 21 763 21 764 21 b 774 28 767 23 771 25 b 775 28 774 28 774 28 b 785 37 778 31 782 34 b 785 37 785 37 785 37 b 785 37 785 37 785 37 b 819 85 800 50 811 67 l 819 85 l 1211 985 l 1532 94 l 1532 93 b 1533 91 1532 92 1533 91 b 1539 77 1535 86 1537 82 b 1545 66 1541 73 1543 70 b 1546 65 1546 66 1546 65 b 1554 53 1549 61 1551 57 b 1555 53 1554 53 1554 53 b 1564 42 1558 49 1561 45 b 1564 42 1564 42 1564 42 b 1565 42 1564 42 1564 42 b 1575 32 1568 38 1571 35 b 1575 32 1575 32 1575 32 b 1586 24 1578 29 1582 27 b 1586 24 1586 24 1586 24 b 1598 17 1590 22 1594 19 b 1610 11 1602 15 1606 13 b 1610 11 1610 11 1610 11 b 1615 9 1612 10 1613 10 b 1621 7 1617 8 1619 8 b 1625 6 1622 7 1624 6 b 1639 2 1630 4 1634 3 b 1639 2 1639 2 1639 2 b 1639 2 1639 2 1639 2 b 1640 2 1639 2 1640 2 b 1640 2 1640 2 1640 2 b 1640 2 1640 2 1640 2 b 1641 2 1641 2 1641 2 b 1648 1 1643 2 1646 1 b 1656 0 1651 1 1653 0 b 1656 0 1656 0 1656 0 b 1656 0 1656 0 1656 0 b 1657 0 1656 0 1656 0 b 1657 0 1657 0 1657 0 b 1657 0 1657 0 1657 0 b 1658 0 1657 0 1658 0 b 1665 0 1660 0 1662 0 b 1681 1 1670 0 1676 0 b 1682 1 1682 1 1682 1 b 1690 2 1685 1 1687 2 b 1698 4 1692 3 1695 3 b 1698 4 1698 4 1698 4 b 1698 4 1698 4 1698 4 b 1699 4 1699 4 1699 4 b 1699 4 1699 4 1699 4 b 1711 8 1703 5 1707 7 b 1712 8 1712 8 1712 8 b 1714 9 1713 9 1713 9 b 1714 9 1714 9 1714 9 b 1714 9 1714 9 1714 9 b 1728 15 1719 11 1723 13 b 1739 22 1732 17 1736 19 b 1741 22 1740 22 1740 22 b 1752 31 1745 25 1749 28 b 1753 31 1752 31 1753 31 b 1764 41 1757 34 1760 38 b 1764 41 1764 41 1764 41 b 1764 41 1764 41 1764 41 b 1788 73 1773 51 1782 61 b 1794 85 1790 77 1792 81 b 1796 91 1795 87 1796 89 l 1797 92 l 2259 1316 l 2259 1316 b 2268 1366 2265 1332 2268 1348 z "},"X":{"ha":1501,"x_min":0,"x_max":0,"o":"m 1362 230 l 1362 230 b 1362 230 1362 230 1362 230 l 933 753 l 1362 1276 b 1362 1276 1362 1276 1362 1276 l 1362 1276 l 1362 1276 b 1394 1366 1382 1301 1394 1332 b 1253 1507 1394 1444 1331 1507 b 1144 1455 1209 1507 1170 1486 l 1144 1455 l 751 975 l 357 1455 l 357 1455 b 249 1507 332 1486 292 1507 b 108 1366 171 1507 108 1444 b 140 1276 108 1332 120 1301 l 140 1276 l 140 1276 b 140 1276 140 1276 140 1276 l 569 753 l 140 230 b 140 230 140 230 140 230 l 140 230 l 140 230 b 108 141 120 206 108 175 b 249 0 108 63 171 0 b 357 52 292 0 332 20 l 357 52 l 751 531 l 1144 52 l 1144 52 b 1253 0 1170 20 1209 0 b 1394 141 1331 0 1394 63 b 1362 230 1394 175 1382 206 z "},"Y":{"ha":1525,"x_min":0,"x_max":0,"o":"m 629 641 b 631 645 630 642 631 644 b 629 641 631 644 630 642 z m 639 659 b 637 655 638 658 638 656 b 639 659 638 656 638 658 z m 634 650 b 632 645 633 648 632 647 b 634 650 632 647 633 648 z m 1467 1366 b 1326 1507 1467 1444 1404 1507 b 1213 1448 1280 1507 1238 1484 l 1213 1449 l 758 824 l 304 1449 l 304 1448 b 190 1507 278 1484 237 1507 b 49 1366 112 1507 49 1444 b 76 1283 49 1335 59 1306 l 76 1283 l 618 539 b 618 582 618 554 617 569 l 618 155 b 618 146 618 152 618 149 b 618 141 618 144 618 142 b 736 2 618 70 669 12 b 738 2 737 2 738 2 b 746 1 741 1 743 1 b 758 0 750 0 754 0 b 758 0 758 0 758 0 b 758 0 758 0 758 0 b 771 1 762 0 767 0 b 778 2 773 1 776 1 b 780 2 779 2 780 2 b 899 141 848 12 899 71 b 899 146 899 142 899 144 b 899 155 899 149 899 152 l 899 539 l 1440 1283 l 1440 1283 b 1467 1366 1457 1306 1467 1335 z m 893 625 b 896 615 894 621 895 618 b 896 613 896 614 896 614 b 893 626 895 618 894 622 b 893 625 893 625 893 625 b 893 625 893 625 893 625 z m 898 604 b 898 601 898 603 898 602 b 897 611 898 604 897 607 b 897 610 897 610 897 610 b 898 604 897 608 897 606 z m 641 662 b 639 659 640 661 640 660 b 640 661 639 660 640 660 b 636 654 639 659 637 656 b 637 655 636 654 636 655 b 635 653 636 654 636 654 b 634 651 635 652 635 652 b 634 650 634 651 634 650 b 634 651 634 650 634 650 b 629 640 632 647 631 644 b 629 641 629 640 629 641 b 629 640 629 640 629 640 b 628 637 629 639 628 638 b 626 631 627 635 626 633 b 628 637 626 633 627 635 b 625 629 627 634 626 631 b 626 631 625 629 625 630 b 625 628 625 630 625 629 b 623 624 624 627 624 625 b 622 620 623 623 623 621 b 641 662 626 634 632 648 b 641 662 641 662 641 662 z m 642 664 b 644 666 643 665 643 665 b 643 665 643 665 643 665 b 642 664 643 665 643 664 z m 621 616 b 622 620 622 618 622 619 b 623 623 622 621 623 622 b 621 616 622 621 622 618 b 621 616 621 616 621 616 z m 899 592 l 899 592 b 898 597 899 594 899 595 b 899 594 899 596 899 595 b 899 592 899 593 899 593 z m 873 665 b 871 668 873 666 872 667 l 871 668 b 873 665 872 667 873 666 z m 892 629 b 889 638 891 632 890 635 b 892 629 890 635 891 632 z m 886 642 b 883 650 885 645 884 647 b 886 642 884 647 885 645 z m 880 654 b 876 661 879 657 878 659 b 880 654 878 659 879 657 z m 645 668 b 643 665 645 667 644 666 b 645 668 644 666 644 667 z "},"Ý":{"ha":1525,"x_min":0,"x_max":0,"o":"m 629 641 b 631 645 630 642 631 644 b 629 641 631 644 630 642 z m 639 659 b 637 655 638 658 638 656 b 639 659 638 656 638 658 z m 634 650 b 632 645 633 648 632 647 b 634 650 632 647 633 648 z m 1467 1366 b 1326 1507 1467 1444 1404 1507 b 1213 1448 1280 1507 1238 1484 l 1213 1449 l 758 824 l 304 1449 l 304 1448 b 190 1507 278 1484 237 1507 b 49 1366 112 1507 49 1444 b 76 1283 49 1335 59 1306 l 76 1283 l 618 539 b 618 582 618 554 617 569 l 618 155 b 618 146 618 152 618 149 b 618 141 618 144 618 142 b 736 2 618 70 669 12 b 738 2 737 2 738 2 b 746 1 741 1 743 1 b 758 0 750 0 754 0 b 758 0 758 0 758 0 b 758 0 758 0 758 0 b 771 1 762 0 767 0 b 778 2 773 1 776 1 b 780 2 779 2 780 2 b 899 141 848 12 899 71 b 899 146 899 142 899 144 b 899 155 899 149 899 152 l 899 539 l 1440 1283 l 1440 1283 b 1467 1366 1457 1306 1467 1335 z m 893 625 b 896 615 894 621 895 618 b 896 613 896 614 896 614 b 893 626 895 618 894 622 b 893 625 893 625 893 625 b 893 625 893 625 893 625 z m 898 604 b 898 601 898 603 898 602 b 897 611 898 604 897 607 b 897 610 897 610 897 610 b 898 604 897 608 897 606 z m 641 662 b 639 659 640 661 640 660 b 640 661 639 660 640 660 b 636 654 639 659 637 656 b 637 655 636 654 636 655 b 635 653 636 654 636 654 b 634 651 635 652 635 652 b 634 650 634 651 634 650 b 634 651 634 650 634 650 b 629 640 632 647 631 644 b 629 641 629 640 629 641 b 629 640 629 640 629 640 b 628 637 629 639 628 638 b 626 631 627 635 626 633 b 628 637 626 633 627 635 b 625 629 627 634 626 631 b 626 631 625 629 625 630 b 625 628 625 630 625 629 b 623 624 624 627 624 625 b 622 620 623 623 623 621 b 641 662 626 634 632 648 b 641 662 641 662 641 662 z m 642 664 b 644 666 643 665 643 665 b 643 665 643 665 643 665 b 642 664 643 665 643 664 z m 621 616 b 622 620 622 618 622 619 b 623 623 622 621 623 622 b 621 616 622 621 622 618 b 621 616 621 616 621 616 z m 899 592 l 899 592 b 898 597 899 594 899 595 b 899 594 899 596 899 595 b 899 592 899 593 899 593 z m 873 665 b 871 668 873 666 872 667 l 871 668 b 873 665 872 667 873 666 z m 892 629 b 889 638 891 632 890 635 b 892 629 890 635 891 632 z m 886 642 b 883 650 885 645 884 647 b 886 642 884 647 885 645 z m 880 654 b 876 661 879 657 878 659 b 880 654 878 659 879 657 z m 645 668 b 643 665 645 667 644 666 b 645 668 644 666 644 667 z "},"Z":{"ha":1432,"x_min":0,"x_max":0,"o":"m 1184 282 l 533 282 l 1295 1279 b 1295 1279 1295 1279 1295 1279 l 1296 1280 b 1184 1507 1367 1374 1299 1507 b 1182 1507 1183 1507 1183 1507 l 1183 1507 b 249 1507 1183 1507 249 1507 b 108 1366 171 1507 108 1444 b 249 1225 108 1288 171 1225 l 249 1225 l 899 1225 l 137 226 b 135 224 136 225 136 225 b 130 217 133 221 132 219 b 127 211 129 215 128 213 b 123 205 126 209 125 207 b 121 201 123 203 122 202 b 111 110 107 171 105 139 b 112 108 112 109 112 108 b 114 99 113 105 113 102 b 156 35 122 75 136 52 b 160 32 158 34 159 33 b 163 29 161 31 162 30 b 165 28 164 29 164 28 b 174 21 168 26 171 23 b 177 20 175 21 176 20 b 187 15 180 18 183 16 b 188 14 187 14 188 14 b 213 5 196 10 204 7 b 215 4 213 5 214 4 b 226 2 218 3 222 2 b 227 2 227 2 227 2 b 239 0 231 1 235 1 b 243 0 241 0 242 0 b 249 0 245 0 247 0 b 253 0 250 0 251 0 b 253 0 253 0 253 0 b 250 0 252 0 251 0 l 1184 0 b 1325 141 1262 0 1325 63 b 1184 282 1325 219 1262 282 z m 329 25 b 329 25 329 25 329 25 b 319 19 326 23 323 21 b 319 19 319 19 319 19 b 329 25 323 21 326 23 z m 340 34 b 340 34 340 34 340 34 b 331 26 337 31 334 29 b 331 26 331 26 331 26 b 340 34 334 29 337 31 z m 318 18 b 318 18 318 18 318 18 b 318 18 318 18 318 18 b 318 18 318 18 318 18 z m 299 9 b 296 8 298 9 297 9 b 299 9 297 9 298 9 z m 291 6 b 289 6 290 6 289 6 b 291 6 289 6 290 6 z m 283 4 b 281 4 282 4 282 4 b 283 4 282 4 282 4 z m 269 2 b 269 2 269 2 269 2 b 269 2 269 2 269 2 z m 267 1 b 265 1 266 1 266 1 b 267 1 266 1 266 1 b 267 1 267 1 267 1 z m 342 35 b 342 35 342 35 342 35 b 351 44 345 38 348 41 b 351 44 351 44 351 44 b 342 35 348 41 345 38 z "},"a":{"ha":1483,"x_min":0,"x_max":0,"o":"m 1305 991 b 1305 991 1305 991 1305 991 b 1164 1132 1305 1068 1242 1132 b 1027 1022 1097 1132 1041 1084 l 1027 1022 b 679 1143 927 1100 805 1143 l 679 1143 b 678 1143 679 1143 678 1143 b 678 1143 678 1143 678 1143 l 678 1143 b 153 337 269 1143 -4 716 b 678 -19 240 125 444 -19 l 678 -19 b 678 -19 678 -19 678 -19 b 679 -19 679 -19 679 -19 l 679 -19 b 1028 102 801 -19 924 21 l 1028 102 b 1164 -5 1043 41 1098 -5 b 1305 136 1242 -5 1305 59 b 1305 136 1305 136 1305 136 l 1305 991 z m 678 262 b 390 562 519 263 390 396 b 678 861 390 727 518 861 b 917 730 777 861 864 810 b 678 262 1048 532 910 263 z "},"à":{"ha":1483,"x_min":0,"x_max":0,"o":"m 1305 991 b 1305 991 1305 991 1305 991 b 1164 1132 1305 1068 1242 1132 b 1027 1022 1097 1132 1041 1084 l 1027 1022 b 679 1143 927 1100 805 1143 l 679 1143 b 678 1143 679 1143 678 1143 b 678 1143 678 1143 678 1143 l 678 1143 b 153 337 269 1143 -4 716 b 678 -19 240 125 444 -19 l 678 -19 b 678 -19 678 -19 678 -19 b 679 -19 679 -19 679 -19 l 679 -19 b 1028 102 801 -19 924 21 l 1028 102 b 1164 -5 1043 41 1098 -5 b 1305 136 1242 -5 1305 59 b 1305 136 1305 136 1305 136 l 1305 991 z m 678 262 b 390 562 519 263 390 396 b 678 861 390 727 518 861 b 917 730 777 861 864 810 b 678 262 1048 532 910 263 z "},"á":{"ha":1483,"x_min":0,"x_max":0,"o":"m 1305 991 b 1305 991 1305 991 1305 991 b 1164 1132 1305 1068 1242 1132 b 1027 1022 1097 1132 1041 1084 l 1027 1022 b 679 1143 927 1100 805 1143 l 679 1143 b 678 1143 679 1143 678 1143 b 678 1143 678 1143 678 1143 l 678 1143 b 153 337 269 1143 -4 716 b 678 -19 240 125 444 -19 l 678 -19 b 678 -19 678 -19 678 -19 b 679 -19 679 -19 679 -19 l 679 -19 b 1028 102 801 -19 924 21 l 1028 102 b 1164 -5 1043 41 1098 -5 b 1305 136 1242 -5 1305 59 b 1305 136 1305 136 1305 136 l 1305 991 z m 678 262 b 390 562 519 263 390 396 b 678 861 390 727 518 861 b 917 730 777 861 864 810 b 678 262 1048 532 910 263 z "},"â":{"ha":1483,"x_min":0,"x_max":0,"o":"m 1305 991 b 1305 991 1305 991 1305 991 b 1164 1132 1305 1068 1242 1132 b 1027 1022 1097 1132 1041 1084 l 1027 1022 b 679 1143 927 1100 805 1143 l 679 1143 b 678 1143 679 1143 678 1143 b 678 1143 678 1143 678 1143 l 678 1143 b 153 337 269 1143 -4 716 b 678 -19 240 125 444 -19 l 678 -19 b 678 -19 678 -19 678 -19 b 679 -19 679 -19 679 -19 l 679 -19 b 1028 102 801 -19 924 21 l 1028 102 b 1164 -5 1043 41 1098 -5 b 1305 136 1242 -5 1305 59 b 1305 136 1305 136 1305 136 l 1305 991 z m 678 262 b 390 562 519 263 390 396 b 678 861 390 727 518 861 b 917 730 777 861 864 810 b 678 262 1048 532 910 263 z "},"ã":{"ha":1483,"x_min":0,"x_max":0,"o":"m 1305 991 b 1305 991 1305 991 1305 991 b 1164 1132 1305 1068 1242 1132 b 1027 1022 1097 1132 1041 1084 l 1027 1022 b 679 1143 927 1100 805 1143 l 679 1143 b 678 1143 679 1143 678 1143 b 678 1143 678 1143 678 1143 l 678 1143 b 153 337 269 1143 -4 716 b 678 -19 240 125 444 -19 l 678 -19 b 678 -19 678 -19 678 -19 b 679 -19 679 -19 679 -19 l 679 -19 b 1028 102 801 -19 924 21 l 1028 102 b 1164 -5 1043 41 1098 -5 b 1305 136 1242 -5 1305 59 b 1305 136 1305 136 1305 136 l 1305 991 z m 678 262 b 390 562 519 263 390 396 b 678 861 390 727 518 861 b 917 730 777 861 864 810 b 678 262 1048 532 910 263 z "},"ä":{"ha":1483,"x_min":0,"x_max":0,"o":"m 1305 991 b 1305 991 1305 991 1305 991 b 1164 1132 1305 1068 1242 1132 b 1027 1022 1097 1132 1041 1084 l 1027 1022 b 679 1143 927 1100 805 1143 l 679 1143 b 678 1143 679 1143 678 1143 b 678 1143 678 1143 678 1143 l 678 1143 b 153 337 269 1143 -4 716 b 678 -19 240 125 444 -19 l 678 -19 b 678 -19 678 -19 678 -19 b 679 -19 679 -19 679 -19 l 679 -19 b 1028 102 801 -19 924 21 l 1028 102 b 1164 -5 1043 41 1098 -5 b 1305 136 1242 -5 1305 59 b 1305 136 1305 136 1305 136 l 1305 991 z m 678 262 b 390 562 519 263 390 396 b 678 861 390 727 518 861 b 917 730 777 861 864 810 b 678 262 1048 532 910 263 z "},"å":{"ha":1483,"x_min":0,"x_max":0,"o":"m 1305 991 b 1305 991 1305 991 1305 991 b 1164 1132 1305 1068 1242 1132 b 1027 1022 1097 1132 1041 1084 l 1027 1022 b 679 1143 927 1100 805 1143 l 679 1143 b 678 1143 679 1143 678 1143 b 678 1143 678 1143 678 1143 l 678 1143 b 153 337 269 1143 -4 716 b 678 -19 240 125 444 -19 l 678 -19 b 678 -19 678 -19 678 -19 b 679 -19 679 -19 679 -19 l 679 -19 b 1028 102 801 -19 924 21 l 1028 102 b 1164 -5 1043 41 1098 -5 b 1305 136 1242 -5 1305 59 b 1305 136 1305 136 1305 136 l 1305 991 z m 678 262 b 390 562 519 263 390 396 b 678 861 390 727 518 861 b 917 730 777 861 864 810 b 678 262 1048 532 910 263 z "},"b":{"ha":1397,"x_min":0,"x_max":0,"o":"m 704 1133 b 416 1053 602 1133 503 1105 l 416 1403 b 275 1544 416 1481 353 1544 b 134 1403 197 1544 134 1481 l 134 126 l 134 126 b 134 125 134 126 134 126 b 275 -15 134 48 197 -15 b 400 61 329 -15 376 15 b 1178 228 659 -107 1005 -34 b 704 1133 1433 614 1159 1133 z m 704 252 b 416 550 545 252 417 386 l 416 553 b 943 720 418 847 784 961 b 704 252 1074 522 936 252 z "},"c":{"ha":1272,"x_min":0,"x_max":0,"o":"m 1017 378 b 923 341 981 378 948 364 b 828 285 895 317 863 298 b 710 264 792 271 752 264 b 584 288 665 264 623 272 b 443 401 526 312 477 352 b 403 481 426 426 413 453 b 389 572 394 510 389 540 b 930 798 389 844 726 981 l 930 798 b 1024 762 955 776 988 762 b 1165 903 1102 762 1165 825 b 1118 1007 1165 944 1146 982 l 1118 1007 b 108 572 735 1352 108 1089 b 156 341 108 491 125 412 b 375 82 202 235 279 145 b 532 8 423 50 476 25 b 710 -18 589 -9 649 -18 b 710 -18 710 -18 710 -18 b 927 21 786 -18 860 -4 b 1110 130 995 47 1056 84 l 1109 130 b 1158 237 1139 156 1158 194 b 1017 378 1158 315 1095 378 z "},"ç":{"ha":1272,"x_min":0,"x_max":0,"o":"m 1017 378 b 923 341 981 378 948 364 b 828 285 895 317 863 298 b 710 264 792 271 752 264 b 584 288 665 264 623 272 b 443 401 526 312 477 352 b 403 481 426 426 413 453 b 389 572 394 510 389 540 b 930 798 389 844 726 981 l 930 798 b 1024 762 955 776 988 762 b 1165 903 1102 762 1165 825 b 1118 1007 1165 944 1146 982 l 1118 1007 b 108 572 735 1352 108 1089 b 156 341 108 491 125 412 b 375 82 202 235 279 145 b 532 8 423 50 476 25 b 710 -18 589 -9 649 -18 b 710 -18 710 -18 710 -18 b 927 21 786 -18 860 -4 b 1110 130 995 47 1056 84 l 1109 130 b 1158 237 1139 156 1158 194 b 1017 378 1158 315 1095 378 z "},"d":{"ha":1399,"x_min":0,"x_max":0,"o":"m 1263 1412 b 1122 1553 1263 1490 1200 1553 b 981 1412 1044 1553 981 1490 l 981 1053 b 678 1142 891 1111 787 1142 b 205 884 483 1142 308 1041 b 679 -20 -47 502 220 -20 b 994 77 791 -20 900 13 b 1122 -6 1016 28 1065 -6 b 1263 134 1200 -6 1263 57 b 1263 135 1263 135 1263 135 l 1263 135 b 1263 1412 1263 135 1263 1412 z m 679 261 b 390 561 520 261 390 395 b 917 729 390 855 758 971 b 679 261 1048 531 910 261 z "},"e":{"ha":1308,"x_min":0,"x_max":0,"o":"m 452 569 b 593 428 452 491 515 428 l 1080 428 b 1221 569 1158 428 1221 491 b 650 1157 1221 897 984 1157 b 649 1157 649 1157 649 1157 b 649 1157 649 1157 649 1157 b 84 569 340 1157 84 893 b 122 346 84 492 97 416 b 203 199 142 293 169 244 b 292 107 229 165 259 134 b 466 13 343 66 402 34 b 677 -20 531 -9 602 -20 b 677 -20 677 -20 677 -20 b 892 22 751 -19 824 -5 b 1073 131 958 48 1019 84 b 1074 132 1074 132 1074 132 b 1078 135 1076 133 1077 134 l 1078 135 b 1125 240 1107 161 1125 199 b 984 381 1125 318 1062 381 b 890 345 948 381 915 367 l 890 345 b 790 284 863 320 827 299 b 678 262 752 270 713 262 b 677 262 678 262 677 262 b 536 287 621 262 574 272 b 464 331 508 299 484 313 b 392 430 433 357 409 390 b 366 569 375 469 366 516 b 649 875 366 739 497 875 b 911 710 774 875 866 811 l 593 710 b 452 569 515 710 452 646 z "},"è":{"ha":1308,"x_min":0,"x_max":0,"o":"m 452 569 b 593 428 452 491 515 428 l 1080 428 b 1221 569 1158 428 1221 491 b 650 1157 1221 897 984 1157 b 649 1157 649 1157 649 1157 b 649 1157 649 1157 649 1157 b 84 569 340 1157 84 893 b 122 346 84 492 97 416 b 203 199 142 293 169 244 b 292 107 229 165 259 134 b 466 13 343 66 402 34 b 677 -20 531 -9 602 -20 b 677 -20 677 -20 677 -20 b 892 22 751 -19 824 -5 b 1073 131 958 48 1019 84 b 1074 132 1074 132 1074 132 b 1078 135 1076 133 1077 134 l 1078 135 b 1125 240 1107 161 1125 199 b 984 381 1125 318 1062 381 b 890 345 948 381 915 367 l 890 345 b 790 284 863 320 827 299 b 678 262 752 270 713 262 b 677 262 678 262 677 262 b 536 287 621 262 574 272 b 464 331 508 299 484 313 b 392 430 433 357 409 390 b 366 569 375 469 366 516 b 649 875 366 739 497 875 b 911 710 774 875 866 811 l 593 710 b 452 569 515 710 452 646 z "},"é":{"ha":1308,"x_min":0,"x_max":0,"o":"m 452 569 b 593 428 452 491 515 428 l 1080 428 b 1221 569 1158 428 1221 491 b 650 1157 1221 897 984 1157 b 649 1157 649 1157 649 1157 b 649 1157 649 1157 649 1157 b 84 569 340 1157 84 893 b 122 346 84 492 97 416 b 203 199 142 293 169 244 b 292 107 229 165 259 134 b 466 13 343 66 402 34 b 677 -20 531 -9 602 -20 b 677 -20 677 -20 677 -20 b 892 22 751 -19 824 -5 b 1073 131 958 48 1019 84 b 1074 132 1074 132 1074 132 b 1078 135 1076 133 1077 134 l 1078 135 b 1125 240 1107 161 1125 199 b 984 381 1125 318 1062 381 b 890 345 948 381 915 367 l 890 345 b 790 284 863 320 827 299 b 678 262 752 270 713 262 b 677 262 678 262 677 262 b 536 287 621 262 574 272 b 464 331 508 299 484 313 b 392 430 433 357 409 390 b 366 569 375 469 366 516 b 649 875 366 739 497 875 b 911 710 774 875 866 811 l 593 710 b 452 569 515 710 452 646 z "},"ê":{"ha":1308,"x_min":0,"x_max":0,"o":"m 452 569 b 593 428 452 491 515 428 l 1080 428 b 1221 569 1158 428 1221 491 b 650 1157 1221 897 984 1157 b 649 1157 649 1157 649 1157 b 649 1157 649 1157 649 1157 b 84 569 340 1157 84 893 b 122 346 84 492 97 416 b 203 199 142 293 169 244 b 292 107 229 165 259 134 b 466 13 343 66 402 34 b 677 -20 531 -9 602 -20 b 677 -20 677 -20 677 -20 b 892 22 751 -19 824 -5 b 1073 131 958 48 1019 84 b 1074 132 1074 132 1074 132 b 1078 135 1076 133 1077 134 l 1078 135 b 1125 240 1107 161 1125 199 b 984 381 1125 318 1062 381 b 890 345 948 381 915 367 l 890 345 b 790 284 863 320 827 299 b 678 262 752 270 713 262 b 677 262 678 262 677 262 b 536 287 621 262 574 272 b 464 331 508 299 484 313 b 392 430 433 357 409 390 b 366 569 375 469 366 516 b 649 875 366 739 497 875 b 911 710 774 875 866 811 l 593 710 b 452 569 515 710 452 646 z "},"ë":{"ha":1308,"x_min":0,"x_max":0,"o":"m 452 569 b 593 428 452 491 515 428 l 1080 428 b 1221 569 1158 428 1221 491 b 650 1157 1221 897 984 1157 b 649 1157 649 1157 649 1157 b 649 1157 649 1157 649 1157 b 84 569 340 1157 84 893 b 122 346 84 492 97 416 b 203 199 142 293 169 244 b 292 107 229 165 259 134 b 466 13 343 66 402 34 b 677 -20 531 -9 602 -20 b 677 -20 677 -20 677 -20 b 892 22 751 -19 824 -5 b 1073 131 958 48 1019 84 b 1074 132 1074 132 1074 132 b 1078 135 1076 133 1077 134 l 1078 135 b 1125 240 1107 161 1125 199 b 984 381 1125 318 1062 381 b 890 345 948 381 915 367 l 890 345 b 790 284 863 320 827 299 b 678 262 752 270 713 262 b 677 262 678 262 677 262 b 536 287 621 262 574 272 b 464 331 508 299 484 313 b 392 430 433 357 409 390 b 366 569 375 469 366 516 b 649 875 366 739 497 875 b 911 710 774 875 866 811 l 593 710 b 452 569 515 710 452 646 z "},"f":{"ha":1067,"x_min":0,"x_max":0,"o":"m 810 1091 l 616 1091 l 616 1169 b 643 1267 616 1169 613 1242 b 799 1289 670 1290 724 1299 l 799 1289 b 818 1288 805 1288 812 1288 b 959 1429 896 1288 959 1351 b 837 1568 959 1500 906 1559 l 837 1568 b 833 1569 836 1568 834 1568 b 832 1569 833 1569 833 1569 b 447 1469 667 1590 537 1557 b 334 1164 331 1358 334 1205 l 334 1091 l 249 1091 b 108 950 171 1091 108 1028 b 249 809 108 872 171 809 l 334 809 l 334 141 l 334 141 b 475 0 334 63 397 0 b 616 141 553 0 616 63 l 616 809 b 810 809 616 809 810 809 b 839 812 820 809 830 810 b 932 880 879 820 913 846 b 934 883 933 881 934 882 b 936 886 935 884 935 885 b 940 895 937 889 939 892 b 942 901 941 897 941 899 b 945 908 943 903 944 906 b 945 909 945 909 945 909 b 951 950 949 922 951 936 b 810 1091 951 1028 888 1091 z "},"g":{"ha":1350,"x_min":0,"x_max":0,"o":"m 1242 549 b 1243 574 1243 557 1243 565 b 1242 598 1243 582 1243 590 b 1242 831 1242 685 1242 767 b 1242 923 1242 869 1242 901 b 1242 958 1242 945 1242 957 b 1101 1098 1242 1035 1179 1098 b 975 1020 1046 1098 999 1067 b 975 1020 975 1020 975 1020 b 676 1100 886 1072 782 1100 b 155 364 265 1100 -7 709 b 960 118 293 70 673 -37 l 960 92 b 959 79 961 92 960 86 b 776 -130 945 -19 884 -104 b 494 -122 707 -147 593 -148 b 356 -59 419 -102 384 -78 b 325 -41 346 -52 336 -46 b 270 -30 310 -34 293 -30 l 270 -30 b 270 -30 270 -30 270 -30 b 129 -171 192 -30 129 -93 b 186 -284 129 -217 152 -258 l 186 -284 b 842 -404 372 -423 654 -449 b 843 -404 843 -404 843 -404 l 843 -404 b 1227 -16 1046 -354 1180 -203 b 1242 549 1247 65 1242 55 z m 960 557 b 676 329 951 432 829 329 b 435 442 574 329 485 375 b 791 797 282 647 537 894 b 960 590 882 763 953 685 b 960 590 960 590 960 590 l 960 558 b 960 557 960 558 960 557 z "},"h":{"ha":1244,"x_min":0,"x_max":0,"o":"m 1136 644 b 1136 646 1136 645 1136 645 b 389 1093 1135 1023 729 1263 b 389 1419 389 1093 389 1418 b 249 1559 389 1496 326 1559 b 108 1419 171 1559 108 1496 l 108 142 l 108 142 b 108 141 108 141 108 141 b 249 0 108 63 171 0 b 389 141 326 0 389 63 b 389 142 389 141 389 141 l 389 142 l 389 644 b 407 729 389 675 396 703 b 854 644 502 948 854 892 l 854 140 l 854 140 b 995 0 855 63 918 0 b 1136 140 1073 0 1136 63 l 1136 140 z "},"i":{"ha":564,"x_min":0,"x_max":0,"o":"m 288 1278 b 429 1419 366 1278 429 1341 b 288 1559 429 1496 366 1559 b 147 1419 210 1559 147 1496 b 288 1278 147 1341 210 1278 z m 288 1132 b 147 992 210 1132 147 1069 l 147 141 b 288 0 147 63 210 0 b 429 141 366 0 429 63 l 429 992 b 288 1132 429 1069 366 1132 z "},"ì":{"ha":564,"x_min":0,"x_max":0,"o":"m 288 1278 b 429 1419 366 1278 429 1341 b 288 1559 429 1496 366 1559 b 147 1419 210 1559 147 1496 b 288 1278 147 1341 210 1278 z m 288 1132 b 147 992 210 1132 147 1069 l 147 141 b 288 0 147 63 210 0 b 429 141 366 0 429 63 l 429 992 b 288 1132 429 1069 366 1132 z "},"í":{"ha":564,"x_min":0,"x_max":0,"o":"m 288 1278 b 429 1419 366 1278 429 1341 b 288 1559 429 1496 366 1559 b 147 1419 210 1559 147 1496 b 288 1278 147 1341 210 1278 z m 288 1132 b 147 992 210 1132 147 1069 l 147 141 b 288 0 147 63 210 0 b 429 141 366 0 429 63 l 429 992 b 288 1132 429 1069 366 1132 z "},"î":{"ha":564,"x_min":0,"x_max":0,"o":"m 288 1278 b 429 1419 366 1278 429 1341 b 288 1559 429 1496 366 1559 b 147 1419 210 1559 147 1496 b 288 1278 147 1341 210 1278 z m 288 1132 b 147 992 210 1132 147 1069 l 147 141 b 288 0 147 63 210 0 b 429 141 366 0 429 63 l 429 992 b 288 1132 429 1069 366 1132 z "},"ï":{"ha":564,"x_min":0,"x_max":0,"o":"m 288 1278 b 429 1419 366 1278 429 1341 b 288 1559 429 1496 366 1559 b 147 1419 210 1559 147 1496 b 288 1278 147 1341 210 1278 z m 288 1132 b 147 992 210 1132 147 1069 l 147 141 b 288 0 147 63 210 0 b 429 141 366 0 429 63 l 429 992 b 288 1132 429 1069 366 1132 z "},"j":{"ha":840,"x_min":0,"x_max":0,"o":"m 592 1275 b 733 1416 670 1275 733 1338 b 592 1557 733 1494 670 1557 b 451 1416 514 1557 451 1494 b 592 1275 451 1338 514 1275 z m 592 1130 b 451 989 514 1130 451 1067 l 451 989 b 447 3 451 -19 452 27 b 267 -82 436 -56 405 -100 l 267 -82 b 249 -80 261 -81 255 -80 b 108 -221 171 -80 108 -143 b 230 -360 108 -292 161 -351 l 230 -361 b 671 -190 408 -385 577 -342 b 732 -1 716 -117 730 -50 l 732 977 b 733 989 733 981 733 985 b 592 1130 733 1067 670 1130 z "},"k":{"ha":1157,"x_min":0,"x_max":0,"o":"m 1078 236 l 1079 236 l 709 640 l 1004 900 l 1004 900 b 1052 1006 1033 926 1052 964 b 911 1147 1052 1084 989 1147 b 818 1111 876 1147 843 1133 l 818 1111 l 417 758 b 416 758 416 758 416 758 b 415 757 416 757 415 757 b 413 755 414 756 414 756 b 413 755 413 755 413 755 l 389 734 l 389 1419 b 249 1560 389 1497 326 1560 b 108 1419 171 1560 108 1497 l 108 142 l 108 142 b 108 141 108 141 108 141 b 249 0 108 63 171 0 b 389 141 326 0 389 63 b 389 142 389 141 389 141 l 389 142 l 389 359 l 498 454 l 871 46 l 871 46 b 975 0 896 18 933 0 b 1115 141 1052 0 1115 63 b 1078 236 1115 177 1101 211 z "},"l":{"ha":803,"x_min":0,"x_max":0,"o":"m 774 133 b 633 273 774 210 710 273 b 614 272 626 273 620 273 l 614 272 b 458 294 539 262 483 270 b 430 379 433 317 429 363 l 430 383 l 430 1420 b 290 1561 430 1498 367 1561 b 149 1420 212 1561 149 1498 b 149 1420 149 1420 149 1420 l 149 397 b 261 92 146 356 146 203 b 554 -14 334 22 432 -14 b 647 -8 584 -14 615 -12 b 647 -7 647 -8 647 -8 b 652 -7 649 -7 650 -7 l 652 -7 b 774 133 720 2 774 61 z "},"m":{"ha":1990,"x_min":0,"x_max":0,"o":"m 1883 141 l 1883 644 b 1883 644 1883 644 1883 644 b 1370 1148 1883 922 1654 1148 b 996 991 1225 1148 1091 1090 b 623 1148 901 1089 768 1148 b 369 1083 534 1148 447 1126 b 369 1083 369 1083 369 1083 b 249 1151 344 1124 300 1151 b 108 1010 171 1151 108 1088 b 108 644 108 1010 108 644 b 108 644 108 644 108 644 l 108 142 b 108 141 108 142 108 141 b 108 141 108 141 108 141 b 249 0 108 63 171 0 b 389 141 326 0 389 63 b 389 141 389 141 389 141 b 389 142 389 141 389 142 b 389 644 389 142 389 644 b 844 710 390 895 767 954 b 854 644 851 689 854 667 l 854 140 l 854 140 b 995 0 855 63 918 0 b 1136 140 1073 0 1136 63 l 1136 140 b 1136 141 1136 140 1136 141 b 1136 141 1136 141 1136 141 l 1136 644 b 1591 710 1136 895 1513 955 b 1601 644 1598 689 1601 667 b 1601 644 1601 644 1601 644 b 1601 141 1601 644 1601 141 l 1601 140 l 1601 140 b 1742 0 1601 63 1664 0 b 1883 140 1820 0 1883 63 l 1883 140 b 1883 141 1883 140 1883 141 b 1883 141 1883 141 1883 141 z "},"n":{"ha":1261,"x_min":0,"x_max":0,"o":"m 1154 151 l 1154 634 b 1154 644 1154 637 1154 641 b 387 1083 1154 1032 727 1271 b 387 1083 387 1083 387 1083 b 267 1151 362 1124 318 1151 b 126 1010 189 1151 126 1088 b 126 644 126 1010 126 644 b 126 644 126 644 126 644 l 126 142 b 126 141 126 142 126 141 b 126 141 126 141 126 141 b 267 0 126 63 189 0 b 407 141 344 0 407 63 b 407 141 407 141 407 141 b 407 142 407 141 407 142 l 407 644 b 862 710 408 895 785 954 b 872 644 869 689 872 667 l 872 129 l 873 129 b 1013 0 879 57 939 0 b 1153 129 1087 0 1148 57 l 1154 129 l 1154 130 b 1154 141 1154 134 1154 137 b 1154 151 1154 144 1154 148 z "},"ñ":{"ha":1261,"x_min":0,"x_max":0,"o":"m 1154 151 l 1154 634 b 1154 644 1154 637 1154 641 b 387 1083 1154 1032 727 1271 b 387 1083 387 1083 387 1083 b 267 1151 362 1124 318 1151 b 126 1010 189 1151 126 1088 b 126 644 126 1010 126 644 b 126 644 126 644 126 644 l 126 142 b 126 141 126 142 126 141 b 126 141 126 141 126 141 b 267 0 126 63 189 0 b 407 141 344 0 407 63 b 407 141 407 141 407 141 b 407 142 407 141 407 142 l 407 644 b 862 710 408 895 785 954 b 872 644 869 689 872 667 l 872 129 l 873 129 b 1013 0 879 57 939 0 b 1153 129 1087 0 1148 57 l 1154 129 l 1154 130 b 1154 141 1154 134 1154 137 b 1154 151 1154 144 1154 148 z "},"o":{"ha":1413,"x_min":0,"x_max":0,"o":"m 1257 783 b 1040 1041 1211 889 1135 978 b 883 1115 992 1073 939 1098 b 706 1141 827 1132 768 1141 b 706 1141 706 1141 706 1141 b 474 1095 624 1141 546 1125 b 211 883 367 1051 276 977 b 135 728 178 836 153 784 b 108 552 117 673 108 613 b 706 -36 108 228 375 -36 b 706 -36 706 -36 706 -36 b 1305 552 1036 -36 1305 227 b 1257 783 1305 634 1288 712 z m 706 245 b 389 552 531 246 389 383 b 414 671 389 595 398 634 b 528 806 437 725 477 773 b 611 845 553 823 581 836 b 706 859 641 854 673 859 b 830 835 751 859 792 851 b 970 723 887 811 936 772 b 1009 643 987 698 1000 671 b 1023 552 1018 614 1023 584 b 706 245 1023 382 880 245 z "},"ò":{"ha":1413,"x_min":0,"x_max":0,"o":"m 1257 783 b 1040 1041 1211 889 1135 978 b 883 1115 992 1073 939 1098 b 706 1141 827 1132 768 1141 b 706 1141 706 1141 706 1141 b 474 1095 624 1141 546 1125 b 211 883 367 1051 276 977 b 135 728 178 836 153 784 b 108 552 117 673 108 613 b 706 -36 108 228 375 -36 b 706 -36 706 -36 706 -36 b 1305 552 1036 -36 1305 227 b 1257 783 1305 634 1288 712 z m 706 245 b 389 552 531 246 389 383 b 414 671 389 595 398 634 b 528 806 437 725 477 773 b 611 845 553 823 581 836 b 706 859 641 854 673 859 b 830 835 751 859 792 851 b 970 723 887 811 936 772 b 1009 643 987 698 1000 671 b 1023 552 1018 614 1023 584 b 706 245 1023 382 880 245 z "},"ó":{"ha":1413,"x_min":0,"x_max":0,"o":"m 1257 783 b 1040 1041 1211 889 1135 978 b 883 1115 992 1073 939 1098 b 706 1141 827 1132 768 1141 b 706 1141 706 1141 706 1141 b 474 1095 624 1141 546 1125 b 211 883 367 1051 276 977 b 135 728 178 836 153 784 b 108 552 117 673 108 613 b 706 -36 108 228 375 -36 b 706 -36 706 -36 706 -36 b 1305 552 1036 -36 1305 227 b 1257 783 1305 634 1288 712 z m 706 245 b 389 552 531 246 389 383 b 414 671 389 595 398 634 b 528 806 437 725 477 773 b 611 845 553 823 581 836 b 706 859 641 854 673 859 b 830 835 751 859 792 851 b 970 723 887 811 936 772 b 1009 643 987 698 1000 671 b 1023 552 1018 614 1023 584 b 706 245 1023 382 880 245 z "},"ô":{"ha":1413,"x_min":0,"x_max":0,"o":"m 1257 783 b 1040 1041 1211 889 1135 978 b 883 1115 992 1073 939 1098 b 706 1141 827 1132 768 1141 b 706 1141 706 1141 706 1141 b 474 1095 624 1141 546 1125 b 211 883 367 1051 276 977 b 135 728 178 836 153 784 b 108 552 117 673 108 613 b 706 -36 108 228 375 -36 b 706 -36 706 -36 706 -36 b 1305 552 1036 -36 1305 227 b 1257 783 1305 634 1288 712 z m 706 245 b 389 552 531 246 389 383 b 414 671 389 595 398 634 b 528 806 437 725 477 773 b 611 845 553 823 581 836 b 706 859 641 854 673 859 b 830 835 751 859 792 851 b 970 723 887 811 936 772 b 1009 643 987 698 1000 671 b 1023 552 1018 614 1023 584 b 706 245 1023 382 880 245 z "},"õ":{"ha":1413,"x_min":0,"x_max":0,"o":"m 1257 783 b 1040 1041 1211 889 1135 978 b 883 1115 992 1073 939 1098 b 706 1141 827 1132 768 1141 b 706 1141 706 1141 706 1141 b 474 1095 624 1141 546 1125 b 211 883 367 1051 276 977 b 135 728 178 836 153 784 b 108 552 117 673 108 613 b 706 -36 108 228 375 -36 b 706 -36 706 -36 706 -36 b 1305 552 1036 -36 1305 227 b 1257 783 1305 634 1288 712 z m 706 245 b 389 552 531 246 389 383 b 414 671 389 595 398 634 b 528 806 437 725 477 773 b 611 845 553 823 581 836 b 706 859 641 854 673 859 b 830 835 751 859 792 851 b 970 723 887 811 936 772 b 1009 643 987 698 1000 671 b 1023 552 1018 614 1023 584 b 706 245 1023 382 880 245 z "},"ö":{"ha":1413,"x_min":0,"x_max":0,"o":"m 1257 783 b 1040 1041 1211 889 1135 978 b 883 1115 992 1073 939 1098 b 706 1141 827 1132 768 1141 b 706 1141 706 1141 706 1141 b 474 1095 624 1141 546 1125 b 211 883 367 1051 276 977 b 135 728 178 836 153 784 b 108 552 117 673 108 613 b 706 -36 108 228 375 -36 b 706 -36 706 -36 706 -36 b 1305 552 1036 -36 1305 227 b 1257 783 1305 634 1288 712 z m 706 245 b 389 552 531 246 389 383 b 414 671 389 595 398 634 b 528 806 437 725 477 773 b 611 845 553 823 581 836 b 706 859 641 854 673 859 b 830 835 751 859 792 851 b 970 723 887 811 936 772 b 1009 643 987 698 1000 671 b 1023 552 1018 614 1023 584 b 706 245 1023 382 880 245 z "},"ø":{"ha":1413,"x_min":0,"x_max":0,"o":"m 1257 783 b 1040 1041 1211 889 1135 978 b 883 1115 992 1073 939 1098 b 706 1141 827 1132 768 1141 b 706 1141 706 1141 706 1141 b 474 1095 624 1141 546 1125 b 211 883 367 1051 276 977 b 135 728 178 836 153 784 b 108 552 117 673 108 613 b 706 -36 108 228 375 -36 b 706 -36 706 -36 706 -36 b 1305 552 1036 -36 1305 227 b 1257 783 1305 634 1288 712 z m 706 245 b 389 552 531 246 389 383 b 414 671 389 595 398 634 b 528 806 437 725 477 773 b 611 845 553 823 581 836 b 706 859 641 854 673 859 b 830 835 751 859 792 851 b 970 723 887 811 936 772 b 1009 643 987 698 1000 671 b 1023 552 1018 614 1023 584 b 706 245 1023 382 880 245 z "},"p":{"ha":1356,"x_min":0,"x_max":0,"o":"m 679 1115 b 376 1027 567 1115 463 1083 b 249 1108 353 1075 305 1108 b 108 967 171 1108 108 1045 b 108 966 108 967 108 967 l 108 966 l 108 -311 l 108 -311 b 249 -451 108 -388 171 -451 b 389 -311 326 -451 389 -388 l 389 55 b 679 -24 474 5 573 -24 b 1248 546 993 -24 1248 231 b 679 1115 1248 860 993 1115 z m 679 256 b 389 546 519 256 389 386 b 679 835 389 705 519 835 b 968 546 839 835 968 705 b 679 256 968 386 839 256 z "},"q":{"ha":1357,"x_min":0,"x_max":0,"o":"m 1108 1118 b 989 1052 1058 1118 1014 1092 b 989 1052 989 1052 989 1052 b 849 1119 946 1081 899 1103 b 679 1146 795 1137 738 1146 l 679 1146 b 679 1146 679 1146 679 1146 b 678 1146 678 1146 678 1146 l 678 1146 b 153 340 270 1146 -5 721 b 678 -16 241 127 446 -16 l 678 -16 b 679 -16 678 -16 678 -16 b 679 -16 679 -16 679 -16 l 679 -16 b 967 64 780 -16 879 11 l 967 -286 b 1108 -427 967 -364 1030 -427 b 1234 -350 1163 -427 1210 -396 b 1249 -286 1243 -331 1249 -309 l 1249 977 b 1108 1118 1249 1055 1186 1118 z m 679 266 b 519 814 394 266 282 650 b 679 864 564 846 619 864 b 790 841 718 864 755 856 b 917 734 841 819 886 781 b 954 655 933 710 945 683 b 967 565 963 627 967 597 b 679 266 967 399 838 266 z "},"r":{"ha":1017,"x_min":0,"x_max":0,"o":"m 850 1081 l 850 1081 b 846 1083 849 1082 847 1083 b 845 1083 845 1083 845 1083 b 360 1080 638 1156 477 1142 b 360 1080 360 1080 360 1080 b 359 1080 360 1080 359 1080 b 249 1134 334 1113 294 1134 b 108 993 171 1134 108 1071 l 108 627 b 108 626 108 626 108 626 b 108 626 108 626 108 626 l 108 139 l 108 139 b 108 138 108 139 108 138 b 249 -3 108 60 171 -3 b 389 138 326 -3 389 60 b 389 139 389 138 389 139 l 389 139 l 389 627 b 519 843 389 664 409 809 b 755 816 591 865 685 842 l 756 816 b 803 808 770 811 786 808 b 944 949 881 808 944 871 b 850 1081 944 1010 905 1062 z "},"s":{"ha":1110,"x_min":0,"x_max":0,"o":"m 502 729 b 424 777 481 736 432 757 b 423 787 423 779 423 781 b 541 864 423 826 429 864 b 751 801 641 864 698 824 b 801 787 767 794 784 789 b 813 787 805 787 809 787 l 813 787 b 813 787 813 787 813 787 b 954 927 891 787 954 850 b 878 1052 954 982 923 1029 l 878 1052 b 745 1111 837 1073 793 1094 b 141 789 453 1212 141 1097 l 141 789 b 141 787 141 788 141 788 b 141 786 141 787 141 786 b 516 434 142 579 314 480 b 719 347 561 424 703 391 b 721 335 720 345 721 342 l 721 335 b 585 258 721 273 647 258 b 326 345 480 258 404 293 l 325 344 b 249 367 303 358 277 367 b 108 226 171 367 108 304 b 187 99 108 170 140 122 b 585 -24 310 21 433 -24 b 1002 335 848 -24 1002 138 b 502 729 1002 659 595 696 z "},"ß":{"ha":1110,"x_min":0,"x_max":0,"o":"m 502 729 b 424 777 481 736 432 757 b 423 787 423 779 423 781 b 541 864 423 826 429 864 b 751 801 641 864 698 824 b 801 787 767 794 784 789 b 813 787 805 787 809 787 l 813 787 b 813 787 813 787 813 787 b 954 927 891 787 954 850 b 878 1052 954 982 923 1029 l 878 1052 b 745 1111 837 1073 793 1094 b 141 789 453 1212 141 1097 l 141 789 b 141 787 141 788 141 788 b 141 786 141 787 141 786 b 516 434 142 579 314 480 b 719 347 561 424 703 391 b 721 335 720 345 721 342 l 721 335 b 585 258 721 273 647 258 b 326 345 480 258 404 293 l 325 344 b 249 367 303 358 277 367 b 108 226 171 367 108 304 b 187 99 108 170 140 122 b 585 -24 310 21 433 -24 b 1002 335 848 -24 1002 138 b 502 729 1002 659 595 696 z "},"t":{"ha":1003,"x_min":0,"x_max":0,"o":"m 941 147 b 800 288 941 225 878 288 b 780 286 793 288 786 287 l 780 286 b 598 399 669 270 597 289 l 598 887 l 792 887 b 792 887 792 887 792 887 b 933 1028 870 887 933 950 b 792 1168 933 1105 870 1168 l 598 1168 l 598 1434 b 598 1435 598 1434 598 1434 b 457 1575 598 1512 535 1575 b 316 1435 379 1575 316 1512 l 316 1168 l 230 1168 b 90 1028 153 1168 90 1105 b 230 887 90 950 153 887 l 316 887 l 316 406 b 814 7 317 146 494 -38 b 815 7 814 7 815 7 b 821 8 817 7 819 7 l 821 8 b 941 147 889 18 941 76 z "},"u":{"ha":1243,"x_min":0,"x_max":0,"o":"m 1136 493 b 1136 493 1136 493 1136 493 l 1136 995 b 1136 996 1136 996 1136 996 b 1136 996 1136 996 1136 996 b 995 1137 1136 1074 1073 1137 b 854 996 917 1137 854 1074 b 854 996 854 996 854 996 b 854 995 854 996 854 996 l 854 493 b 399 427 854 242 477 183 b 389 493 393 448 389 470 l 389 1008 l 389 1008 b 249 1137 383 1080 322 1137 b 108 1008 175 1137 114 1080 l 108 1008 l 108 1007 b 108 996 108 1003 108 1000 b 108 986 108 993 108 989 l 108 503 b 108 493 108 500 108 496 b 875 54 108 105 534 -134 b 875 54 875 54 875 54 b 995 -14 899 14 944 -14 b 1136 127 1073 -14 1136 49 b 1136 493 1136 127 1136 493 z "},"ù":{"ha":1243,"x_min":0,"x_max":0,"o":"m 1136 493 b 1136 493 1136 493 1136 493 l 1136 995 b 1136 996 1136 996 1136 996 b 1136 996 1136 996 1136 996 b 995 1137 1136 1074 1073 1137 b 854 996 917 1137 854 1074 b 854 996 854 996 854 996 b 854 995 854 996 854 996 l 854 493 b 399 427 854 242 477 183 b 389 493 393 448 389 470 l 389 1008 l 389 1008 b 249 1137 383 1080 322 1137 b 108 1008 175 1137 114 1080 l 108 1008 l 108 1007 b 108 996 108 1003 108 1000 b 108 986 108 993 108 989 l 108 503 b 108 493 108 500 108 496 b 875 54 108 105 534 -134 b 875 54 875 54 875 54 b 995 -14 899 14 944 -14 b 1136 127 1073 -14 1136 49 b 1136 493 1136 127 1136 493 z "},"ú":{"ha":1243,"x_min":0,"x_max":0,"o":"m 1136 493 b 1136 493 1136 493 1136 493 l 1136 995 b 1136 996 1136 996 1136 996 b 1136 996 1136 996 1136 996 b 995 1137 1136 1074 1073 1137 b 854 996 917 1137 854 1074 b 854 996 854 996 854 996 b 854 995 854 996 854 996 l 854 493 b 399 427 854 242 477 183 b 389 493 393 448 389 470 l 389 1008 l 389 1008 b 249 1137 383 1080 322 1137 b 108 1008 175 1137 114 1080 l 108 1008 l 108 1007 b 108 996 108 1003 108 1000 b 108 986 108 993 108 989 l 108 503 b 108 493 108 500 108 496 b 875 54 108 105 534 -134 b 875 54 875 54 875 54 b 995 -14 899 14 944 -14 b 1136 127 1073 -14 1136 49 b 1136 493 1136 127 1136 493 z "},"û":{"ha":1243,"x_min":0,"x_max":0,"o":"m 1136 493 b 1136 493 1136 493 1136 493 l 1136 995 b 1136 996 1136 996 1136 996 b 1136 996 1136 996 1136 996 b 995 1137 1136 1074 1073 1137 b 854 996 917 1137 854 1074 b 854 996 854 996 854 996 b 854 995 854 996 854 996 l 854 493 b 399 427 854 242 477 183 b 389 493 393 448 389 470 l 389 1008 l 389 1008 b 249 1137 383 1080 322 1137 b 108 1008 175 1137 114 1080 l 108 1008 l 108 1007 b 108 996 108 1003 108 1000 b 108 986 108 993 108 989 l 108 503 b 108 493 108 500 108 496 b 875 54 108 105 534 -134 b 875 54 875 54 875 54 b 995 -14 899 14 944 -14 b 1136 127 1073 -14 1136 49 b 1136 493 1136 127 1136 493 z "},"ü":{"ha":1243,"x_min":0,"x_max":0,"o":"m 1136 493 b 1136 493 1136 493 1136 493 l 1136 995 b 1136 996 1136 996 1136 996 b 1136 996 1136 996 1136 996 b 995 1137 1136 1074 1073 1137 b 854 996 917 1137 854 1074 b 854 996 854 996 854 996 b 854 995 854 996 854 996 l 854 493 b 399 427 854 242 477 183 b 389 493 393 448 389 470 l 389 1008 l 389 1008 b 249 1137 383 1080 322 1137 b 108 1008 175 1137 114 1080 l 108 1008 l 108 1007 b 108 996 108 1003 108 1000 b 108 986 108 993 108 989 l 108 503 b 108 493 108 500 108 496 b 875 54 108 105 534 -134 b 875 54 875 54 875 54 b 995 -14 899 14 944 -14 b 1136 127 1073 -14 1136 49 b 1136 493 1136 127 1136 493 z "},"v":{"ha":1240,"x_min":0,"x_max":0,"o":"m 1189 925 l 1189 925 b 1203 986 1198 943 1203 964 b 1062 1127 1203 1064 1140 1127 b 935 1047 1006 1127 958 1094 l 935 1047 l 655 466 l 375 1047 l 375 1047 b 249 1127 353 1094 304 1127 b 108 986 171 1127 108 1064 b 122 925 108 964 113 943 l 122 925 l 528 81 l 528 81 b 531 74 529 79 530 77 b 532 73 532 74 532 73 b 538 63 534 70 536 66 b 539 62 538 62 539 62 b 546 52 541 58 544 55 b 547 51 546 52 547 51 b 555 42 550 48 552 45 b 556 41 555 42 556 41 b 564 34 559 39 561 36 b 566 32 565 33 566 32 b 568 30 567 31 568 31 b 573 27 570 29 571 28 b 578 24 575 26 576 25 b 587 18 581 22 584 20 b 588 17 587 18 588 17 b 681 3 619 0 651 -3 b 780 75 724 11 760 38 b 782 81 781 77 781 79 l 782 81 l 782 81 b 785 86 783 83 784 85 z "},"w":{"ha":2065,"x_min":0,"x_max":0,"o":"m 655 0 b 656 0 655 0 656 0 b 655 0 656 0 655 0 b 655 0 655 0 655 0 z m 776 68 b 773 63 775 66 774 65 b 776 68 774 65 775 66 z m 770 59 b 767 55 769 58 768 57 b 770 59 768 57 769 58 z m 578 23 b 586 18 580 21 583 20 b 578 23 583 20 580 21 z m 1579 54 b 1582 57 1580 55 1581 56 b 1579 54 1581 56 1580 55 z m 1393 22 b 1397 20 1394 21 1396 20 b 1393 22 1396 20 1394 21 z m 1412 12 b 1406 15 1410 13 1408 14 b 1408 14 1406 15 1407 14 b 1412 12 1409 13 1411 13 z m 1591 71 b 1588 67 1590 70 1589 68 b 1591 71 1589 68 1590 70 z m 1469 0 b 1469 0 1469 0 1469 0 b 1469 0 1469 0 1469 0 b 1469 0 1469 0 1469 0 z m 1352 61 b 1358 54 1354 59 1356 56 b 1352 61 1356 56 1354 59 z m 1385 27 b 1381 30 1384 28 1383 29 b 1385 27 1383 29 1384 28 z m 1367 43 b 1364 46 1366 44 1365 45 b 1367 43 1365 45 1366 44 z m 1371 40 b 1374 37 1372 39 1373 38 b 1371 40 1373 38 1372 39 z m 1378 33 b 1374 37 1377 34 1375 35 b 1378 33 1375 35 1377 34 z m 2016 986 b 1875 1126 2016 1063 1953 1126 b 1749 1047 1819 1126 1771 1094 l 1748 1047 l 1469 465 l 1189 1046 l 1189 1047 l 1189 1047 b 1062 1126 1166 1094 1118 1126 b 937 1050 1007 1126 960 1095 l 937 1050 b 936 1050 936 1050 936 1050 b 936 1049 936 1049 936 1049 b 935 1047 936 1048 935 1048 l 655 465 l 375 1047 l 375 1047 b 249 1126 353 1094 304 1126 b 108 986 171 1126 108 1063 b 122 925 108 964 113 943 l 122 925 l 528 81 l 528 80 l 529 80 b 587 18 541 54 562 32 b 586 18 587 18 586 18 b 587 18 586 18 587 18 b 590 16 588 17 589 16 b 594 14 592 15 593 15 b 595 14 594 14 595 14 b 591 16 593 14 592 15 b 655 0 610 6 632 0 b 668 1 660 0 664 0 b 656 0 664 0 660 0 b 684 3 665 0 674 1 b 711 11 693 5 702 8 b 711 11 711 11 711 11 b 711 11 711 11 711 11 b 763 50 731 20 749 34 b 761 48 762 50 762 49 b 763 51 762 49 762 50 b 765 52 764 51 764 52 b 767 55 765 53 766 54 b 765 52 766 54 766 53 b 771 61 767 55 769 58 b 770 59 771 60 770 59 b 771 61 770 60 771 60 b 772 62 772 62 772 62 b 773 63 772 63 773 63 b 772 63 773 63 772 63 b 778 72 774 66 776 69 b 778 71 778 72 778 72 b 778 73 778 72 778 72 b 780 76 779 74 780 75 b 780 76 780 76 780 76 b 780 76 780 76 780 76 b 782 80 781 77 781 79 l 782 80 b 780 76 782 79 781 78 b 782 80 781 78 782 79 l 783 81 l 1062 661 l 1335 93 b 1336 92 1336 92 1336 92 l 1336 92 l 1342 80 b 1343 77 1342 79 1343 78 l 1343 78 b 1360 52 1348 68 1353 60 b 1358 54 1359 52 1359 53 b 1360 52 1359 53 1359 52 b 1361 51 1360 51 1360 51 b 1364 46 1362 49 1363 48 b 1361 51 1363 48 1362 49 b 1368 42 1363 48 1366 45 b 1367 43 1368 43 1367 43 b 1371 40 1368 42 1370 41 b 1370 41 1370 40 1370 40 b 1379 33 1372 38 1375 35 b 1378 33 1378 33 1378 33 b 1381 30 1379 32 1380 31 b 1380 32 1381 31 1380 31 b 1389 25 1383 29 1386 27 b 1385 27 1388 26 1386 27 b 1389 25 1386 27 1388 26 b 1390 24 1389 24 1390 24 b 1393 22 1391 23 1392 23 b 1391 23 1392 22 1392 23 b 1399 18 1394 21 1397 20 b 1397 20 1399 19 1398 19 b 1400 18 1398 19 1399 18 b 1403 17 1401 17 1402 17 b 1406 15 1404 16 1405 16 b 1404 16 1405 15 1404 16 b 1469 0 1423 6 1445 0 b 1481 1 1473 0 1477 0 b 1469 0 1477 0 1473 0 b 1499 3 1479 0 1489 1 b 1511 7 1503 4 1507 5 b 1511 7 1511 7 1511 7 b 1524 12 1516 8 1520 10 b 1525 12 1524 12 1524 12 b 1524 12 1524 12 1524 12 b 1576 50 1544 20 1562 34 b 1573 46 1575 49 1574 47 b 1576 50 1574 47 1575 49 b 1578 52 1577 51 1577 51 b 1579 54 1578 53 1579 53 b 1578 52 1579 53 1578 53 b 1585 62 1580 55 1583 58 b 1582 57 1584 60 1583 59 b 1585 62 1583 59 1584 60 b 1585 62 1585 62 1585 62 b 1588 67 1586 64 1587 65 b 1586 63 1587 65 1587 64 b 1591 72 1588 66 1590 69 b 1591 71 1591 72 1591 71 b 1592 73 1591 72 1591 72 b 1594 76 1592 74 1593 75 b 1595 80 1594 78 1595 79 l 1596 80 b 1596 80 1596 80 1596 80 l 1596 81 b 1596 81 1596 81 1596 81 b 1596 81 1596 81 1596 81 l 1596 81 l 2002 925 l 2002 925 b 2016 986 2011 943 2016 964 z m 1497 3 b 1498 3 1498 3 1498 3 b 1497 3 1498 3 1498 3 z m 1594 76 b 1596 80 1594 78 1595 79 l 1596 80 b 1594 76 1595 79 1594 78 z "},"x":{"ha":1200,"x_min":0,"x_max":0,"o":"m 1065 58 b 1068 63 1066 60 1067 61 b 1072 69 1070 65 1071 67 b 1075 75 1073 71 1074 73 b 1078 81 1076 77 1077 79 b 1081 87 1079 83 1080 85 b 1083 93 1082 89 1083 91 b 1086 100 1084 95 1085 98 b 1087 106 1086 102 1087 104 b 1089 114 1088 109 1089 111 b 1090 120 1089 116 1090 118 b 1091 127 1090 122 1091 125 b 1092 137 1091 130 1091 134 b 1092 141 1092 138 1092 139 b 1092 141 1092 141 1092 141 b 1091 155 1092 146 1091 150 b 1091 158 1091 156 1091 157 b 1089 169 1090 162 1090 165 b 1087 175 1089 171 1088 173 b 1086 182 1087 177 1086 180 b 1083 189 1085 184 1084 186 b 1081 195 1082 191 1082 193 b 1078 202 1080 197 1079 200 b 1075 208 1077 204 1076 206 b 1069 217 1073 211 1071 214 b 1068 219 1069 217 1068 218 b 1059 231 1065 223 1062 227 b 1059 231 1059 231 1059 231 l 783 563 l 1059 896 l 1059 896 b 1092 986 1079 920 1092 951 b 951 1126 1092 1063 1029 1126 b 843 1076 907 1126 869 1107 l 843 1076 l 842 1075 b 842 1075 842 1075 842 1075 l 600 783 l 357 1075 b 357 1075 357 1075 357 1075 l 357 1076 l 357 1076 b 249 1126 331 1107 292 1126 b 108 986 171 1126 108 1063 b 140 896 108 951 120 920 l 140 896 l 417 563 l 140 231 b 140 231 140 231 140 231 b 132 219 137 227 134 223 b 130 217 131 218 131 217 b 125 208 128 214 126 211 b 122 202 124 206 123 204 b 119 195 121 200 120 197 b 116 188 118 193 117 191 b 114 182 115 186 115 184 b 112 174 113 180 113 177 b 111 169 111 172 111 171 b 109 157 110 165 109 161 b 108 155 109 156 109 156 b 108 141 108 150 108 146 b 108 141 108 141 108 141 b 108 138 108 140 108 139 b 108 127 108 134 108 131 b 109 121 109 125 109 123 b 110 114 110 118 110 116 b 112 106 111 111 112 109 b 114 100 113 104 113 102 b 116 93 114 98 115 96 b 118 87 117 91 117 89 b 121 81 119 85 120 83 b 124 75 122 79 123 77 b 127 70 125 73 126 71 b 131 63 129 67 130 65 b 135 58 132 61 133 60 b 139 52 136 56 138 54 b 143 47 141 50 142 49 b 149 42 145 45 147 43 b 155 36 151 40 153 38 b 158 33 156 35 157 34 b 159 32 159 32 159 32 b 162 30 160 32 161 31 b 169 24 164 28 167 26 b 173 22 171 24 172 23 b 180 18 176 20 178 19 b 185 15 182 17 183 16 b 192 12 187 14 190 13 b 197 10 194 11 195 11 b 204 7 199 9 202 8 b 209 6 206 7 208 6 b 217 4 212 5 215 4 b 222 3 219 3 220 3 b 231 1 225 2 228 2 b 235 1 232 1 234 1 b 248 0 240 0 244 0 b 262 1 253 0 257 0 b 263 1 262 1 263 1 b 275 3 267 1 271 2 b 278 3 276 3 277 3 b 289 6 281 4 285 5 b 292 7 290 6 291 6 b 302 11 295 8 299 9 b 305 12 303 11 304 11 b 315 17 308 13 312 15 b 316 17 316 17 316 17 b 337 32 324 21 331 26 b 338 32 338 32 338 32 b 347 41 342 35 345 38 b 349 42 348 41 348 42 b 357 51 352 45 354 48 l 357 51 b 357 51 357 51 357 51 l 600 343 l 842 51 b 842 51 842 51 842 51 l 843 51 b 851 42 845 48 848 45 b 852 41 851 42 852 41 b 861 32 855 38 858 35 b 862 32 861 32 862 32 b 883 17 869 26 876 21 b 884 17 883 17 884 17 b 895 12 888 15 891 13 b 897 11 896 11 896 11 b 908 7 901 9 904 8 b 911 6 909 6 910 6 b 922 3 914 5 918 4 b 924 3 923 3 923 3 b 936 1 928 2 932 1 b 937 1 937 1 937 1 b 951 0 942 0 946 0 b 964 1 955 0 960 0 b 968 1 966 1 967 1 b 977 3 971 2 974 2 b 982 4 979 3 981 3 b 990 6 985 4 987 5 b 995 7 992 6 993 7 b 1003 10 998 8 1000 9 b 1007 12 1004 11 1006 11 b 1015 15 1010 13 1012 14 b 1019 18 1016 16 1018 17 b 1026 22 1021 19 1024 20 b 1030 24 1027 23 1029 24 b 1037 30 1033 26 1035 28 b 1041 32 1038 31 1040 31 b 1041 33 1041 32 1041 32 b 1044 35 1042 33 1043 34 b 1051 42 1046 37 1049 39 b 1056 47 1053 43 1054 45 b 1060 52 1057 49 1059 50 b 1065 58 1062 54 1063 56 z "},"y":{"ha":1297,"x_min":0,"x_max":0,"o":"m 1173 916 b 1188 979 1183 935 1188 957 b 1048 1120 1188 1057 1125 1120 b 922 1042 992 1120 945 1089 l 922 1042 l 664 528 l 319 1056 l 319 1056 b 201 1120 294 1095 251 1120 b 61 979 124 1120 61 1057 b 84 902 61 951 69 925 l 83 902 l 518 237 l 278 -242 l 278 -242 b 263 -305 269 -261 263 -282 b 404 -446 263 -383 327 -446 b 530 -368 459 -446 507 -414 l 530 -368 l 805 181 l 805 181 l 806 182 l 1173 916 z "},"ý":{"ha":1297,"x_min":0,"x_max":0,"o":"m 1173 916 b 1188 979 1183 935 1188 957 b 1048 1120 1188 1057 1125 1120 b 922 1042 992 1120 945 1089 l 922 1042 l 664 528 l 319 1056 l 319 1056 b 201 1120 294 1095 251 1120 b 61 979 124 1120 61 1057 b 84 902 61 951 69 925 l 83 902 l 518 237 l 278 -242 l 278 -242 b 263 -305 269 -261 263 -282 b 404 -446 263 -383 327 -446 b 530 -368 459 -446 507 -414 l 530 -368 l 805 181 l 805 181 l 806 182 l 1173 916 z "},"ÿ":{"ha":1297,"x_min":0,"x_max":0,"o":"m 1173 916 b 1188 979 1183 935 1188 957 b 1048 1120 1188 1057 1125 1120 b 922 1042 992 1120 945 1089 l 922 1042 l 664 528 l 319 1056 l 319 1056 b 201 1120 294 1095 251 1120 b 61 979 124 1120 61 1057 b 84 902 61 951 69 925 l 83 902 l 518 237 l 278 -242 l 278 -242 b 263 -305 269 -261 263 -282 b 404 -446 263 -383 327 -446 b 530 -368 459 -446 507 -414 l 530 -368 l 805 181 l 805 181 l 806 182 l 1173 916 z "},"z":{"ha":1206,"x_min":0,"x_max":0,"o":"m 957 282 l 550 282 l 1065 895 l 1065 895 b 1067 897 1066 896 1066 897 b 957 1126 1141 989 1076 1126 b 957 1126 957 1126 957 1126 l 249 1126 b 108 986 171 1126 108 1063 b 249 845 108 908 171 845 b 249 845 249 845 249 845 l 655 845 l 141 232 l 141 232 b 173 22 92 172 93 73 b 250 0 197 7 224 0 l 250 0 l 957 0 b 957 0 957 0 957 0 b 1098 141 1035 0 1098 63 b 957 282 1098 219 1035 282 z "}," ":{"ha":874,"x_min":0,"x_max":0,"o":""},"£":{"ha":1490,"x_min":0,"x_max":0,"o":"m 1378 102 b 1384 141 1382 114 1384 127 b 1243 282 1384 219 1321 282 l 619 282 l 619 577 l 1012 577 b 1029 576 1018 577 1023 576 b 1171 717 1107 576 1171 639 b 1029 859 1171 796 1107 859 b 1029 859 1029 859 1029 859 b 1029 859 1029 859 1029 859 l 618 859 b 684 1165 620 947 626 1100 b 1018 1160 756 1246 993 1227 b 1151 1064 1037 1104 1089 1064 b 1290 1182 1221 1064 1279 1115 b 1290 1184 1290 1183 1290 1184 b 1291 1194 1291 1188 1291 1191 b 1292 1200 1292 1196 1292 1198 b 1292 1205 1292 1202 1292 1203 b 1292 1207 1292 1206 1292 1207 b 1291 1216 1292 1210 1292 1213 b 1291 1221 1291 1218 1291 1219 b 1290 1230 1291 1224 1290 1227 b 1289 1235 1289 1232 1289 1233 b 1286 1245 1288 1238 1287 1241 b 1285 1248 1286 1246 1286 1247 b 1284 1252 1285 1249 1285 1251 b 863 1500 1225 1422 1040 1500 b 336 859 468 1500 342 1258 l 249 859 b 108 718 171 859 108 796 b 249 577 108 640 171 577 l 338 577 l 338 282 l 269 282 b 129 141 192 282 129 219 b 269 0 129 63 192 0 l 1243 0 b 1370 80 1299 0 1347 33 b 1377 99 1373 86 1375 92 b 1378 102 1378 100 1378 101 z "},"Ä":{"ha":1742,"x_min":0,"x_max":0,"o":"m 1604 55 b 1609 62 1606 57 1608 59 b 1613 67 1611 63 1612 65 b 1616 73 1614 69 1615 71 b 1620 81 1618 76 1619 78 b 1622 85 1621 82 1622 84 b 1626 94 1623 88 1624 91 b 1627 98 1626 95 1626 96 b 1629 106 1628 100 1628 103 b 1630 111 1630 108 1630 109 b 1632 118 1631 113 1631 116 b 1633 125 1632 120 1632 123 b 1633 131 1633 127 1633 129 b 1634 139 1633 133 1634 136 b 1634 141 1634 140 1634 140 b 1634 144 1634 142 1634 143 b 1633 153 1633 147 1633 150 b 1632 159 1633 155 1633 157 b 1631 167 1632 162 1632 164 b 1630 174 1631 169 1630 171 b 1628 180 1629 176 1629 178 b 1625 188 1627 183 1626 185 b 1624 193 1625 190 1624 191 b 1620 201 1622 196 1621 199 b 1618 205 1619 202 1619 204 l 1002 1419 b 871 1508 981 1471 930 1508 b 740 1419 811 1508 760 1471 l 123 205 b 122 201 122 204 122 202 b 118 193 120 199 119 196 b 116 188 117 191 117 190 b 113 180 115 185 114 183 b 112 174 113 178 112 176 b 110 167 111 171 111 169 b 109 159 110 164 109 162 b 108 153 109 157 109 155 b 108 144 108 150 108 147 b 108 141 108 143 108 142 b 108 139 108 140 108 140 b 108 131 108 136 108 133 b 109 125 108 129 108 127 b 110 118 109 123 109 120 b 111 111 110 116 110 113 b 112 106 111 109 112 108 b 115 98 113 103 114 100 b 116 94 115 96 115 95 b 119 85 117 91 118 88 b 121 81 120 84 121 82 b 125 73 122 78 124 76 b 129 67 126 71 127 69 b 132 62 130 65 131 63 b 137 55 134 59 136 57 b 140 51 138 53 139 52 b 147 44 142 49 144 46 b 149 41 147 43 148 42 b 156 35 151 39 154 37 b 160 32 157 34 158 33 b 165 27 161 30 163 29 b 171 23 167 26 169 25 b 176 20 173 22 174 21 b 184 16 178 19 181 17 b 185 15 184 16 184 16 b 188 14 186 15 187 14 b 196 10 191 13 193 11 b 202 8 198 9 200 9 b 209 6 204 7 207 6 b 216 4 211 5 214 5 b 222 3 218 4 220 3 b 230 1 225 2 228 2 b 236 1 232 1 234 1 b 245 0 239 0 242 0 b 249 0 246 0 247 0 b 250 0 249 0 249 0 b 259 1 253 0 256 0 b 264 1 261 1 262 1 b 271 2 267 1 269 2 b 278 3 274 2 276 3 b 283 5 280 4 282 4 b 292 7 286 5 289 6 b 296 8 293 7 294 8 b 304 12 299 9 302 10 b 308 14 306 12 307 13 b 316 18 311 15 314 16 b 322 21 318 19 320 20 b 328 24 324 22 326 23 b 335 30 330 26 333 28 b 338 32 336 31 337 32 b 345 39 341 35 343 37 b 348 42 346 40 347 41 b 354 48 350 44 352 46 b 358 52 355 49 357 51 b 362 58 359 54 361 56 b 366 63 363 60 365 61 b 369 68 367 65 368 67 b 373 76 370 71 372 73 b 374 77 374 76 374 77 l 871 1055 l 1079 645 l 841 645 b 701 504 764 645 701 582 b 841 363 701 426 764 363 l 1222 363 l 1367 77 b 1368 76 1368 77 1368 76 b 1372 68 1369 73 1371 71 b 1375 63 1373 67 1374 65 b 1380 58 1377 61 1378 60 b 1384 52 1381 56 1382 54 b 1387 48 1385 51 1386 49 b 1393 42 1389 46 1391 44 b 1396 39 1394 41 1395 40 b 1403 32 1398 37 1401 34 b 1407 30 1404 32 1405 31 b 1414 24 1409 28 1411 26 b 1419 21 1415 23 1417 22 b 1425 18 1421 20 1423 19 b 1433 14 1428 16 1430 15 b 1437 12 1434 13 1436 12 b 1446 8 1440 10 1443 9 b 1450 7 1447 8 1448 7 b 1458 5 1452 6 1455 5 b 1463 3 1460 4 1461 4 b 1470 2 1465 3 1468 2 b 1477 1 1472 2 1475 1 b 1483 1 1479 1 1481 1 b 1491 0 1486 0 1488 0 b 1493 0 1492 0 1492 0 b 1496 0 1494 0 1495 0 b 1505 1 1499 0 1502 0 b 1511 1 1507 1 1509 1 b 1519 3 1514 2 1516 2 b 1526 4 1521 3 1523 3 b 1532 6 1528 5 1530 5 b 1540 8 1535 6 1537 7 b 1545 10 1542 9 1543 9 b 1553 14 1548 11 1551 13 b 1557 15 1555 14 1556 15 b 1558 16 1557 16 1557 16 b 1566 20 1561 17 1563 19 b 1570 23 1567 21 1569 22 b 1576 27 1572 25 1574 26 b 1582 32 1578 29 1580 30 b 1586 35 1583 33 1584 34 b 1592 41 1588 37 1590 39 b 1595 44 1593 42 1594 43 b 1601 51 1597 46 1599 48 b 1604 55 1602 52 1603 53 z m 604 1530 b 745 1671 682 1530 745 1593 b 604 1812 745 1749 682 1812 b 463 1671 526 1812 463 1749 b 604 1530 463 1593 526 1530 z m 1138 1530 b 1278 1671 1215 1530 1278 1593 b 1138 1812 1278 1749 1215 1812 b 997 1671 1060 1812 997 1749 b 1138 1530 997 1593 1060 1530 z "},"Ë":{"ha":1314,"x_min":0,"x_max":0,"o":"m 1065 282 l 389 282 l 389 612 l 945 612 b 1086 753 1023 612 1086 676 b 945 894 1086 831 1023 894 b 945 894 945 894 945 894 l 389 894 l 389 1225 l 1065 1225 b 1206 1366 1143 1225 1206 1288 b 1065 1507 1206 1444 1143 1507 l 269 1507 b 249 1508 262 1508 256 1508 b 108 1367 171 1508 108 1445 b 108 1367 108 1367 108 1367 b 108 1366 108 1366 108 1366 l 108 141 b 177 20 108 89 136 44 b 249 0 198 7 222 0 l 1065 0 b 1206 141 1143 0 1206 63 b 1065 282 1206 219 1143 282 z m 390 1601 b 531 1742 468 1601 531 1664 b 390 1882 531 1819 468 1882 b 249 1742 312 1882 249 1819 b 390 1601 249 1664 312 1601 z m 924 1601 b 1065 1742 1002 1601 1065 1664 b 924 1882 1065 1819 1002 1882 b 783 1742 846 1882 783 1819 b 924 1601 783 1664 846 1601 z "},"Ö":{"ha":1811,"x_min":0,"x_max":0,"o":"m 639 1582 b 779 1722 716 1582 779 1645 b 639 1863 779 1800 716 1863 b 498 1722 561 1863 498 1800 b 639 1582 498 1645 561 1582 z m 1172 1582 b 1313 1722 1250 1582 1313 1645 b 1172 1863 1313 1800 1250 1863 b 1032 1722 1095 1863 1032 1800 b 1172 1582 1032 1645 1095 1582 z m 906 1547 b 905 1547 905 1547 905 1547 l 896 1547 l 896 1547 b 108 749 460 1542 108 1186 b 905 -49 108 310 464 -49 l 905 -49 b 905 -49 905 -49 905 -49 b 906 -49 906 -49 906 -49 l 906 -49 b 1703 748 1347 -49 1703 309 b 1703 749 1703 748 1703 749 b 906 1547 1703 1190 1346 1547 z m 905 233 b 705 273 834 233 766 247 b 389 749 520 352 389 535 b 905 1265 389 1035 621 1265 b 1422 749 1192 1265 1422 1033 b 905 233 1421 463 1190 233 z "},"Ü":{"ha":1525,"x_min":0,"x_max":0,"o":"m 495 1539 b 636 1680 573 1539 636 1602 b 495 1821 636 1758 573 1821 b 355 1680 418 1821 355 1758 b 495 1539 355 1602 418 1539 z m 1029 1539 b 1170 1680 1107 1539 1170 1602 b 1029 1821 1170 1758 1107 1821 b 888 1680 951 1821 888 1758 b 1029 1539 888 1602 951 1539 z m 1276 1540 b 1135 1399 1198 1540 1135 1477 b 1135 1395 1135 1398 1135 1397 l 1135 594 l 1136 594 b 1135 587 1136 592 1135 590 b 1135 587 1135 587 1135 587 b 762 270 1135 415 953 270 b 761 270 762 270 761 270 b 761 270 761 270 761 270 b 389 587 570 270 389 415 b 389 594 389 590 389 592 l 389 594 l 389 1395 b 389 1399 389 1397 389 1398 b 249 1540 389 1477 326 1540 b 108 1399 171 1540 108 1477 l 108 594 l 108 594 b 108 587 108 592 108 590 b 761 -11 108 255 417 -11 b 1417 587 1104 -11 1417 254 b 1417 594 1417 590 1417 592 l 1417 594 l 1417 1399 b 1276 1540 1417 1477 1354 1540 z "},"А":{"ha":1742,"x_min":0,"x_max":0,"o":"m 1618 205 l 1618 205 l 1002 1419 b 871 1508 981 1471 930 1508 b 740 1419 811 1508 760 1471 l 123 205 l 123 205 b 108 141 113 185 108 164 b 249 0 108 63 171 0 b 374 77 303 0 351 31 l 374 77 l 871 1055 l 1079 645 l 841 645 b 701 504 764 645 701 582 b 841 363 701 426 764 363 l 1222 363 l 1367 77 l 1367 77 b 1493 0 1391 31 1438 0 b 1634 141 1571 0 1634 63 b 1618 205 1634 164 1628 185 z "},"В":{"ha":1501,"x_min":0,"x_max":0,"o":"m 860 646 b 860 646 860 646 860 646 b 864 646 861 646 863 646 l 836 646 z m 1213 831 b 1198 810 1208 824 1203 817 b 1213 831 1203 817 1208 824 b 1217 836 1215 833 1216 835 b 860 1508 1410 1122 1204 1508 b 860 1508 860 1508 860 1508 l 250 1508 b 250 1508 250 1508 250 1508 b 249 1508 249 1508 249 1508 b 108 1367 171 1508 108 1445 b 108 1367 108 1367 108 1367 b 108 1366 108 1366 108 1366 l 108 141 b 117 91 108 123 111 106 b 234 1 136 42 180 6 b 249 0 239 0 244 0 b 930 0 249 0 930 0 b 1213 831 1370 0 1562 561 z m 1194 806 b 1181 790 1190 801 1186 795 b 1194 806 1186 795 1190 801 z m 930 928 l 903 928 b 939 928 914 928 926 928 b 930 928 936 928 933 928 l 903 928 b 930 928 903 928 930 928 z m 1143 753 b 890 647 1073 691 984 654 b 1143 753 984 654 1073 691 z m 930 282 l 389 282 l 389 1225 l 869 1225 b 862 928 1057 1218 1053 931 l 862 928 b 862 928 862 928 862 928 l 836 928 l 608 928 b 607 928 608 928 608 928 b 593 927 602 928 598 928 b 467 788 522 920 467 860 b 467 787 467 787 467 787 b 467 787 467 787 467 787 b 607 646 467 709 530 646 b 611 647 609 646 610 647 l 864 646 b 1081 566 912 644 1015 664 b 930 282 1162 446 1077 282 z m 1163 772 b 1177 786 1168 776 1173 781 b 1163 772 1173 781 1168 776 z "},"К":{"ha":1447,"x_min":0,"x_max":0,"o":"m 1307 230 l 1307 230 l 1307 230 b 1307 230 1307 230 1307 230 l 804 843 l 1214 1268 b 1217 1272 1215 1269 1216 1270 b 1222 1278 1219 1274 1221 1276 b 1226 1283 1224 1279 1225 1281 b 1230 1289 1228 1285 1229 1287 b 1234 1295 1232 1291 1233 1293 b 1237 1301 1235 1297 1236 1299 b 1240 1307 1238 1303 1239 1305 b 1243 1313 1241 1309 1242 1311 b 1245 1319 1244 1315 1245 1317 b 1248 1326 1246 1322 1247 1324 b 1249 1333 1248 1328 1249 1330 b 1251 1339 1250 1335 1250 1337 b 1252 1347 1251 1342 1252 1344 b 1253 1353 1252 1349 1253 1351 b 1253 1361 1253 1356 1253 1358 b 1253 1366 1253 1363 1253 1364 b 1253 1367 1253 1366 1253 1367 b 1253 1375 1253 1370 1253 1372 b 1253 1381 1253 1377 1253 1379 b 1251 1388 1252 1383 1252 1386 b 1250 1395 1251 1390 1251 1393 b 1249 1401 1250 1397 1249 1399 b 1247 1408 1248 1403 1248 1406 b 1245 1414 1246 1410 1246 1412 b 1242 1421 1244 1416 1243 1418 b 1239 1428 1241 1423 1240 1425 b 1236 1433 1238 1429 1237 1431 b 1232 1440 1235 1435 1234 1437 b 1229 1445 1231 1441 1230 1443 b 1225 1450 1228 1447 1226 1448 b 1221 1456 1224 1452 1222 1454 b 1217 1460 1220 1457 1218 1459 b 1211 1466 1215 1462 1213 1464 b 1210 1467 1211 1467 1211 1467 b 1207 1470 1209 1468 1208 1469 b 1201 1475 1205 1472 1203 1474 b 1195 1479 1199 1477 1197 1478 b 1190 1483 1194 1481 1192 1482 b 1184 1487 1188 1485 1186 1486 b 1178 1490 1182 1488 1180 1489 b 1172 1493 1176 1491 1174 1492 b 1166 1496 1170 1494 1168 1495 b 1159 1498 1164 1497 1162 1498 b 1153 1501 1157 1499 1155 1500 b 1146 1502 1151 1501 1148 1502 b 1140 1504 1144 1503 1142 1503 b 1132 1505 1137 1504 1135 1505 b 1126 1506 1130 1505 1128 1506 b 1113 1507 1122 1506 1117 1507 b 1113 1507 1113 1507 1113 1507 b 1112 1507 1113 1507 1112 1507 b 1099 1506 1108 1507 1103 1506 b 1091 1505 1096 1506 1093 1505 b 1085 1504 1089 1504 1087 1504 b 1076 1502 1082 1503 1079 1502 b 1071 1500 1075 1501 1073 1501 b 1063 1497 1069 1500 1066 1498 b 1058 1496 1062 1497 1060 1496 b 1051 1492 1056 1495 1053 1493 b 1046 1490 1049 1491 1047 1491 b 1034 1482 1042 1487 1038 1485 b 1030 1479 1032 1481 1031 1480 b 1023 1474 1027 1478 1025 1476 b 1019 1470 1021 1473 1020 1472 b 1012 1464 1017 1468 1014 1466 b 1011 1463 1012 1464 1012 1464 l 389 819 l 389 1373 l 389 1373 b 249 1507 385 1447 324 1507 b 108 1373 173 1507 112 1447 l 108 1373 l 108 141 b 249 0 108 63 171 0 b 389 141 326 0 389 63 l 389 413 l 607 639 l 607 639 l 1089 51 l 1089 51 b 1198 0 1115 20 1154 0 b 1339 141 1276 0 1339 63 b 1307 230 1339 175 1327 206 z "},"М":{"ha":1860,"x_min":0,"x_max":0,"o":"m 1752 140 b 1752 141 1752 140 1752 140 b 1751 159 1752 147 1752 153 l 1675 1362 l 1675 1364 b 1675 1371 1675 1366 1675 1368 b 1674 1374 1675 1372 1674 1373 b 1674 1382 1674 1377 1674 1379 b 1673 1388 1673 1384 1673 1386 b 1671 1396 1672 1391 1672 1394 b 1669 1402 1670 1398 1670 1400 b 1667 1410 1669 1405 1668 1407 b 1665 1415 1666 1412 1666 1414 b 1662 1423 1664 1418 1663 1420 b 1660 1426 1661 1424 1661 1425 b 1659 1429 1660 1427 1659 1428 b 1655 1435 1658 1431 1656 1433 b 1652 1441 1654 1437 1653 1439 b 1647 1447 1650 1443 1649 1445 b 1644 1452 1646 1449 1645 1450 b 1638 1458 1642 1454 1640 1456 b 1634 1463 1637 1460 1636 1461 b 1628 1469 1632 1465 1630 1467 b 1625 1472 1627 1470 1626 1471 b 1624 1472 1624 1472 1624 1472 b 1623 1473 1624 1472 1623 1473 b 1619 1476 1622 1474 1621 1475 b 1616 1478 1618 1477 1617 1478 b 1611 1482 1614 1479 1613 1481 b 1604 1486 1609 1483 1607 1484 b 1600 1488 1603 1486 1602 1487 b 1589 1493 1597 1490 1593 1492 b 1589 1494 1589 1494 1589 1494 b 1578 1498 1585 1495 1582 1496 b 1578 1498 1578 1498 1578 1498 b 1578 1498 1578 1498 1578 1498 b 1578 1498 1578 1498 1578 1498 b 1577 1498 1577 1498 1577 1498 b 1577 1498 1577 1498 1577 1498 b 1574 1499 1576 1498 1575 1499 b 1564 1501 1570 1500 1567 1501 b 1560 1502 1563 1502 1561 1502 b 1551 1504 1557 1503 1554 1503 b 1547 1504 1550 1504 1548 1504 b 1534 1505 1543 1504 1538 1505 b 1527 1504 1532 1505 1530 1505 b 1524 1504 1526 1504 1525 1504 b 1516 1503 1521 1504 1518 1504 b 1510 1502 1514 1503 1512 1503 b 1502 1501 1507 1502 1504 1501 b 1496 1499 1500 1500 1498 1500 b 1488 1497 1493 1499 1491 1498 b 1482 1495 1486 1496 1484 1495 b 1475 1491 1480 1494 1477 1493 b 1471 1490 1474 1491 1473 1491 b 1469 1489 1471 1490 1470 1489 b 1462 1485 1467 1488 1465 1486 b 1457 1482 1461 1484 1459 1483 b 1451 1477 1455 1480 1453 1479 b 1446 1473 1449 1476 1447 1475 b 1440 1468 1444 1472 1442 1470 b 1435 1464 1438 1467 1437 1466 b 1429 1458 1433 1462 1431 1460 b 1426 1454 1428 1457 1427 1456 b 1426 1454 1426 1454 1426 1454 b 1425 1453 1425 1453 1425 1453 b 1422 1449 1424 1451 1423 1450 l 1421 1448 l 921 792 l 440 1446 l 440 1446 b 326 1505 415 1481 373 1505 b 185 1364 248 1505 185 1442 b 185 1362 185 1363 185 1363 l 185 1362 l 109 159 b 108 141 108 153 108 147 b 108 140 108 140 108 140 l 108 139 l 108 139 b 249 0 109 62 171 0 b 389 139 326 0 388 62 l 389 139 l 442 967 b 803 478 619 722 743 549 b 804 476 804 477 804 477 l 806 474 b 819 458 810 468 815 463 b 830 448 823 455 827 451 b 838 442 834 445 836 443 b 839 442 839 442 839 442 b 858 430 845 437 852 433 b 918 416 877 421 898 416 b 919 416 919 416 919 416 b 978 429 940 416 960 421 b 1003 444 987 433 995 438 b 1018 457 1008 448 1014 452 b 1032 472 1023 461 1027 466 l 1033 474 l 1418 978 l 1471 139 l 1471 139 b 1611 0 1472 62 1534 0 b 1752 139 1689 0 1751 62 l 1752 139 z "},"€":{"ha":1543,"x_min":0,"x_max":0,"o":"m 1413 213 b 1414 216 1413 214 1414 215 b 1419 225 1416 219 1418 222 b 1422 229 1420 226 1421 228 b 1425 237 1423 232 1424 234 b 1427 243 1426 239 1426 241 b 1430 250 1428 245 1429 248 b 1431 257 1430 252 1431 254 b 1433 263 1432 259 1432 261 b 1434 271 1433 266 1434 268 b 1435 277 1434 273 1435 275 b 1435 285 1435 280 1435 283 b 1435 290 1435 287 1435 288 b 1435 291 1435 290 1435 291 b 1435 299 1435 294 1435 296 b 1435 305 1435 301 1435 303 b 1434 309 1434 307 1434 308 b 1411 369 1431 331 1423 351 b 1408 373 1410 370 1409 371 b 1403 380 1407 375 1405 377 b 1399 384 1402 381 1400 383 b 1394 390 1397 386 1396 388 b 1390 393 1393 391 1392 392 b 1384 399 1388 395 1386 397 b 1381 401 1383 400 1382 401 b 1372 408 1378 403 1375 406 b 1371 408 1372 408 1372 408 b 1363 413 1369 410 1366 412 b 1358 415 1361 414 1360 415 b 1351 419 1356 417 1354 418 b 1347 421 1350 419 1348 420 b 1339 423 1344 422 1342 423 b 1335 425 1338 424 1337 424 b 1324 428 1331 426 1328 427 b 1321 428 1323 428 1322 428 b 1311 430 1318 429 1314 429 b 1307 430 1310 430 1309 430 b 1295 431 1303 431 1299 431 b 1295 431 1295 431 1295 431 b 1295 431 1295 431 1295 431 b 1294 431 1295 431 1295 431 b 1282 430 1290 431 1286 431 b 1279 430 1281 430 1280 430 b 1268 428 1275 429 1272 429 b 1264 427 1266 428 1265 428 b 1255 425 1261 427 1258 426 b 1251 424 1254 425 1252 424 b 1242 421 1248 423 1245 422 b 1238 419 1241 420 1239 420 b 1228 414 1235 417 1231 416 b 1226 413 1227 414 1227 413 b 1217 407 1223 411 1220 409 b 1215 406 1216 407 1216 407 b 1205 399 1212 404 1209 402 b 1205 398 1205 399 1205 398 b 1196 390 1201 396 1199 393 b 1195 389 1195 390 1195 390 b 1187 380 1192 386 1189 383 b 1185 378 1186 380 1185 379 b 1179 370 1183 376 1181 373 b 1177 368 1179 370 1178 369 b 1177 367 1177 367 1177 367 l 1177 367 b 1122 306 1159 340 1141 321 b 1080 279 1108 295 1094 286 b 1018 259 1059 269 1037 262 b 968 254 998 255 981 254 b 968 254 968 254 968 254 b 952 254 961 254 955 254 b 950 255 951 254 951 255 b 950 255 950 255 950 255 b 941 256 947 255 944 255 b 930 256 937 256 934 256 b 928 256 929 256 929 256 b 628 447 789 257 688 314 l 948 447 b 1089 588 1026 447 1089 510 b 948 729 1089 666 1026 729 l 573 729 b 573 751 573 736 573 744 b 575 809 573 771 573 790 l 949 809 b 1090 950 1026 809 1090 872 b 949 1090 1090 1027 1026 1090 l 662 1090 b 663 1091 662 1091 663 1091 b 962 1247 728 1188 827 1245 l 962 1247 b 963 1247 962 1247 963 1247 l 964 1247 b 966 1247 964 1247 965 1247 b 1134 1170 1020 1243 1109 1219 l 1134 1170 b 1259 1093 1157 1125 1205 1093 b 1400 1234 1337 1093 1400 1156 b 1385 1298 1400 1257 1395 1279 l 1385 1298 b 1384 1300 1384 1299 1384 1299 b 1382 1302 1383 1301 1383 1302 b 977 1528 1305 1449 1131 1521 b 975 1528 976 1528 975 1528 b 970 1528 973 1528 971 1528 b 968 1528 969 1528 969 1528 b 349 1091 669 1528 448 1357 b 349 1091 349 1091 349 1091 l 249 1091 b 109 950 172 1091 109 1027 b 249 809 109 872 172 809 l 293 809 b 291 751 292 790 291 771 b 291 729 291 744 291 736 l 249 729 b 108 588 171 729 108 666 b 249 447 108 510 171 447 l 330 447 b 922 -26 412 154 622 -22 b 968 -28 932 -27 948 -28 b 1057 -20 992 -28 1023 -26 b 1142 1 1083 -16 1112 -9 b 1283 74 1187 16 1236 39 b 1411 210 1329 108 1373 154 b 1412 212 1411 211 1411 212 b 1413 213 1412 212 1412 213 z "},"":{"ha":1311,"x_min":0,"x_max":0,"o":"m 1189 925 l 1189 925 b 1203 986 1198 943 1203 964 b 1062 1127 1203 1064 1140 1127 b 935 1047 1006 1127 958 1094 l 935 1047 l 655 466 l 375 1047 l 375 1047 b 249 1127 353 1094 304 1127 b 108 986 171 1127 108 1064 b 122 925 108 964 113 943 l 122 925 l 528 81 l 528 81 b 531 74 529 79 530 77 b 532 73 532 74 532 73 b 538 63 534 70 536 66 b 539 62 538 62 539 62 b 546 52 541 58 544 55 b 547 51 546 52 547 51 b 555 42 550 48 552 45 b 556 41 555 42 556 41 b 564 34 559 39 561 36 b 566 32 565 33 566 32 b 568 30 567 31 568 31 b 573 27 570 29 571 28 b 578 24 575 26 576 25 b 587 18 581 22 584 20 b 588 17 587 18 588 17 b 681 3 619 0 651 -3 b 780 75 724 11 760 38 b 782 81 781 77 781 79 l 782 81 l 782 81 b 785 86 783 83 784 85 z "},"":{"ha":1244,"x_min":0,"x_max":0,"o":"m 1136 493 b 1136 493 1136 493 1136 493 l 1136 995 b 1136 996 1136 996 1136 996 b 1136 996 1136 996 1136 996 b 995 1137 1136 1074 1073 1137 b 854 996 917 1137 854 1074 b 854 996 854 996 854 996 b 854 995 854 996 854 996 l 854 493 b 399 427 854 242 477 183 b 389 493 393 448 389 470 l 389 1008 l 389 1008 b 249 1137 383 1080 322 1137 b 108 1008 175 1137 114 1080 l 108 1008 l 108 1007 b 108 996 108 1003 108 1000 b 108 986 108 993 108 989 l 108 503 b 108 493 108 500 108 496 b 875 54 108 105 534 -134 b 875 54 875 54 875 54 b 995 -14 899 14 944 -14 b 1136 127 1073 -14 1136 49 b 1136 493 1136 127 1136 493 z "},"":{"ha":840,"x_min":0,"x_max":0,"o":"m 592 1276 b 733 1416 670 1276 733 1339 b 592 1557 733 1494 670 1557 b 451 1416 514 1557 451 1494 b 592 1276 451 1339 514 1276 z m 592 1130 b 451 989 514 1130 451 1067 l 451 989 b 447 3 451 -19 452 27 b 267 -81 436 -55 405 -100 l 267 -81 b 249 -80 261 -81 255 -80 b 108 -221 171 -80 108 -143 b 230 -360 108 -292 161 -351 l 230 -360 b 671 -189 408 -384 577 -342 b 732 -1 716 -116 730 -50 l 732 977 b 733 989 733 981 733 985 b 592 1130 733 1067 670 1130 z "},"":{"ha":1413,"x_min":0,"x_max":0,"o":"m 706 1141 b 706 1141 706 1141 706 1141 b 108 552 377 1141 108 879 b 706 -36 108 228 375 -36 b 706 -36 706 -36 706 -36 b 1305 552 1036 -36 1305 227 b 706 1141 1305 880 1034 1141 z m 706 245 b 389 552 531 246 389 383 b 830 835 389 774 624 920 b 1023 552 942 789 1023 681 b 706 245 1023 382 880 245 z "},"":{"ha":1413,"x_min":0,"x_max":0,"o":"m 706 1141 b 706 1141 706 1141 706 1141 b 108 552 377 1141 108 879 b 706 -36 108 228 375 -36 b 706 -36 706 -36 706 -36 b 1305 552 1036 -36 1305 227 b 706 1141 1305 880 1034 1141 z m 706 245 b 389 552 531 246 389 383 b 830 835 389 774 624 920 b 1023 552 942 789 1023 681 b 706 245 1023 382 880 245 z "},"":{"ha":1413,"x_min":0,"x_max":0,"o":"m 706 1144 b 706 1144 706 1144 706 1144 b 108 555 377 1144 108 881 b 706 -33 108 231 375 -33 b 706 -33 706 -33 706 -33 b 1305 555 1036 -33 1305 230 b 706 1144 1305 883 1034 1144 z m 706 248 b 389 555 531 248 389 386 b 830 838 389 777 624 923 b 1023 555 942 791 1023 683 b 706 248 1023 384 880 248 z "},"":{"ha":1335,"x_min":0,"x_max":0,"o":"m 1086 1508 b 1065 1506 1079 1508 1072 1507 l 1065 1507 l 249 1507 b 162 1477 216 1507 186 1495 b 150 1466 158 1473 154 1470 b 149 1465 150 1466 149 1466 b 108 1367 124 1440 108 1406 l 108 1367 l 108 141 b 249 0 108 63 171 0 b 389 141 326 0 389 63 l 389 612 l 945 612 b 1086 753 1023 612 1086 676 b 945 894 1086 831 1023 894 l 389 894 l 389 1225 l 1065 1225 l 1065 1228 b 1086 1227 1072 1227 1079 1227 b 1227 1367 1164 1227 1227 1290 b 1086 1508 1227 1445 1164 1508 z "}}}
